<svg width="16" height="16" viewBox="0 0 16 16" fill="none" xmlns="http://www.w3.org/2000/svg">
<path d="M13.3047 0.222319L15.5424 2.47815C15.8839 2.81113 15.9996 3.2525 16.0001 3.68236C15.9432 5.5833 15.0094 7.38013 14.0506 8.85544C12.2889 11.2771 10.1044 13.499 7.46455 14.8935C6.35757 15.4284 4.94516 16.056 3.70957 15.996C3.24477 15.9907 2.7886 15.8654 2.489 15.5381L0.23432 13.2823C-0.16412 12.8138 -0.02636 12.3608 0.437747 12.0611L3.87911 10.2463C4.2868 10.0552 4.72363 10.1648 5.01495 10.4498L5.84561 11.2809C5.91589 11.3322 5.99589 11.3649 6.08296 11.3657C7.31659 11.047 8.45361 10.0815 9.23611 9.22861C10.0186 8.37572 11.0787 7.45894 11.3297 6.26892C11.3707 6.12182 11.3852 5.94165 11.2873 5.83641L10.3041 4.86961C10.0515 4.53633 9.92803 4.05513 10.1346 3.69933L10.1346 3.68237L12.0671 0.408905C12.3684 -0.0716406 12.9505 -0.121749 13.3047 0.222319Z" fill="#EDCA4A"/>
</svg>
