<svg width="14" height="8" viewBox="0 0 14 8" fill="none" xmlns="http://www.w3.org/2000/svg">
<path fill-rule="evenodd" clip-rule="evenodd" d="M0.875 4C0.875 3.88397 0.921093 3.77269 1.00314 3.69064C1.08519 3.60859 1.19647 3.5625 1.3125 3.5625L11.6314 3.5625L8.87775 0.809749C8.7956 0.727598 8.74945 0.616177 8.74945 0.499999C8.74945 0.38382 8.7956 0.2724 8.87775 0.190249C8.9599 0.108098 9.07132 0.0619465 9.1875 0.0619465C9.30368 0.061946 9.4151 0.108098 9.49725 0.190249L12.9973 3.69025C13.038 3.73089 13.0703 3.77917 13.0924 3.83232C13.1144 3.88547 13.1258 3.94245 13.1258 4C13.1258 4.05754 13.1144 4.11452 13.0924 4.16768C13.0703 4.22083 13.038 4.26911 12.9973 4.30975L9.49725 7.80975C9.4151 7.8919 9.30368 7.93805 9.1875 7.93805C9.07132 7.93805 8.9599 7.8919 8.87775 7.80975C8.7956 7.7276 8.74945 7.61618 8.74945 7.5C8.74945 7.38382 8.7956 7.2724 8.87775 7.19025L11.6314 4.4375L1.3125 4.4375C1.19647 4.4375 1.08519 4.3914 1.00314 4.30936C0.921093 4.22731 0.875 4.11603 0.875 4Z" fill="#EDCA4A"/>
</svg>
