<svg width="190" height="170" viewBox="0 0 190 170" fill="none" xmlns="http://www.w3.org/2000/svg">
<rect y="160" width="10" height="10" fill="white"/>
<rect x="20" y="160" width="10" height="10" fill="white"/>
<rect x="40" y="160" width="10" height="10" fill="white"/>
<rect x="60" y="160" width="10" height="10" fill="white"/>
<rect x="80" y="160" width="10" height="10" fill="white"/>
<rect x="100" y="160" width="10" height="10" fill="white"/>
<rect x="120" y="160" width="10" height="10" fill="white"/>
<rect x="140" y="160" width="10" height="10" fill="white"/>
<rect x="160" y="160" width="10" height="10" fill="white"/>
<rect x="180" y="160" width="10" height="10" fill="white"/>
<rect y="140" width="10" height="10" fill="white"/>
<rect x="20" y="140" width="10" height="10" fill="white"/>
<rect x="40" y="140" width="10" height="10" fill="white"/>
<rect x="60" y="140" width="10" height="10" fill="white"/>
<rect x="80" y="140" width="10" height="10" fill="white"/>
<rect x="100" y="140" width="10" height="10" fill="white"/>
<rect x="120" y="140" width="10" height="10" fill="white"/>
<rect x="140" y="140" width="10" height="10" fill="white"/>
<rect x="160" y="140" width="10" height="10" fill="white"/>
<rect x="180" y="140" width="10" height="10" fill="white"/>
<rect y="120" width="10" height="10" fill="white"/>
<rect x="20" y="120" width="10" height="10" fill="white"/>
<rect x="40" y="120" width="10" height="10" fill="white"/>
<rect x="60" y="120" width="10" height="10" fill="white"/>
<rect x="80" y="120" width="10" height="10" fill="white"/>
<rect x="100" y="120" width="10" height="10" fill="white"/>
<rect x="120" y="120" width="10" height="10" fill="white"/>
<rect x="140" y="120" width="10" height="10" fill="white"/>
<rect x="160" y="120" width="10" height="10" fill="white"/>
<rect x="180" y="120" width="10" height="10" fill="white"/>
<rect y="100" width="10" height="10" fill="white"/>
<rect x="20" y="100" width="10" height="10" fill="white"/>
<rect x="40" y="100" width="10" height="10" fill="white"/>
<rect x="60" y="100" width="10" height="10" fill="white"/>
<rect x="80" y="100" width="10" height="10" fill="white"/>
<rect x="100" y="100" width="10" height="10" fill="white"/>
<rect x="120" y="100" width="10" height="10" fill="white"/>
<rect x="140" y="100" width="10" height="10" fill="white"/>
<rect x="160" y="100" width="10" height="10" fill="white"/>
<rect x="180" y="100" width="10" height="10" fill="white"/>
<rect y="80" width="10" height="10" fill="white"/>
<rect x="20" y="80" width="10" height="10" fill="white"/>
<rect x="40" y="80" width="10" height="10" fill="white"/>
<rect x="60" y="80" width="10" height="10" fill="white"/>
<rect x="80" y="80" width="10" height="10" fill="white"/>
<rect x="100" y="80" width="10" height="10" fill="white"/>
<rect x="120" y="80" width="10" height="10" fill="white"/>
<rect x="140" y="80" width="10" height="10" fill="white"/>
<rect x="160" y="80" width="10" height="10" fill="white"/>
<rect x="180" y="80" width="10" height="10" fill="white"/>
<rect y="60" width="10" height="10" fill="white"/>
<rect x="20" y="60" width="10" height="10" fill="white"/>
<rect x="40" y="60" width="10" height="10" fill="white"/>
<rect x="60" y="60" width="10" height="10" fill="white"/>
<rect x="80" y="60" width="10" height="10" fill="white"/>
<rect x="100" y="60" width="10" height="10" fill="white"/>
<rect x="120" y="60" width="10" height="10" fill="white"/>
<rect x="140" y="60" width="10" height="10" fill="white"/>
<rect x="160" y="60" width="10" height="10" fill="white"/>
<rect x="180" y="60" width="10" height="10" fill="white"/>
<rect y="40" width="10" height="10" fill="white"/>
<rect x="20" y="40" width="10" height="10" fill="white"/>
<rect x="40" y="40" width="10" height="10" fill="white"/>
<rect x="60" y="40" width="10" height="10" fill="white"/>
<rect x="80" y="40" width="10" height="10" fill="white"/>
<rect x="100" y="40" width="10" height="10" fill="white"/>
<rect x="120" y="40" width="10" height="10" fill="white"/>
<rect x="140" y="40" width="10" height="10" fill="white"/>
<rect x="160" y="40" width="10" height="10" fill="white"/>
<rect x="180" y="40" width="10" height="10" fill="white"/>
<rect y="20" width="10" height="10" fill="white"/>
<rect x="20" y="20" width="10" height="10" fill="white"/>
<rect x="40" y="20" width="10" height="10" fill="white"/>
<rect x="60" y="20" width="10" height="10" fill="white"/>
<rect x="80" y="20" width="10" height="10" fill="white"/>
<rect x="100" y="20" width="10" height="10" fill="white"/>
<rect x="120" y="20" width="10" height="10" fill="white"/>
<rect x="140" y="20" width="10" height="10" fill="white"/>
<rect x="160" y="20" width="10" height="10" fill="white"/>
<rect x="180" y="20" width="10" height="10" fill="white"/>
<rect width="10" height="10" fill="white"/>
<rect x="20" width="10" height="10" fill="white"/>
<rect x="40" width="10" height="10" fill="white"/>
<rect x="60" width="10" height="10" fill="white"/>
<rect x="80" width="10" height="10" fill="white"/>
<rect x="100" width="10" height="10" fill="white"/>
<rect x="120" width="10" height="10" fill="white"/>
<rect x="140" width="10" height="10" fill="white"/>
<rect x="160" width="10" height="10" fill="white"/>
<rect x="180" width="10" height="10" fill="white"/>
</svg>
