<svg width="76" height="76" viewBox="0 0 76 76" fill="none" xmlns="http://www.w3.org/2000/svg">
<path d="M43.2514 21.0704H32.7493C32.1343 21.0704 31.636 21.5689 31.636 22.1837V54.4899C31.636 55.1048 32.1343 55.6032 32.7493 55.6032H43.2514C43.8663 55.6032 44.3647 55.1048 44.3647 54.4899V22.1837C44.3647 21.5689 43.8663 21.0704 43.2514 21.0704ZM33.8624 23.297H42.1379V27.5316H33.8624V23.297ZM33.8624 29.7582H42.1379V33.9929H33.8624V29.7582ZM33.8624 42.6807H42.1379V46.9155H33.8624V42.6807ZM42.1381 53.3766H33.8625V49.142H42.1381V53.3766ZM42.1381 40.4541H33.8625V36.2195H42.1381V40.4541Z" fill="#232323"/>
<path d="M26.021 21.0704H15.5188C14.904 21.0704 14.4055 21.5689 14.4055 22.1837V67.4124C14.4055 68.0273 14.904 68.5257 15.5188 68.5257H26.021C26.636 68.5257 27.1343 68.0273 27.1343 67.4124V22.1837C27.1343 21.5689 26.6359 21.0704 26.021 21.0704ZM24.9078 66.2992H16.6321V62.0644H24.9078V66.2992ZM24.9078 59.8378H16.6321V55.6032H24.9078V59.8378ZM24.9078 53.3766H16.6321V49.142H24.9078V53.3766ZM24.9078 46.9155H16.6321V42.6807H24.9078V46.9155ZM24.9078 40.4541H16.6321V36.2195H24.9078V40.4541ZM24.9078 33.9929H16.6321V29.7582H24.9078V33.9929ZM24.9078 27.5316H16.6321V23.297H24.9078V27.5316Z" fill="#232323"/>
<path d="M60.4815 21.0704H49.9792C49.3643 21.0704 48.866 21.5689 48.866 22.1837V67.4124C48.866 68.0273 49.3643 68.5257 49.9792 68.5257H60.4815C61.0965 68.5257 61.5948 68.0273 61.5948 67.4124V22.1837C61.5948 21.5689 61.0966 21.0704 60.4815 21.0704ZM51.0927 36.2195H59.3684V40.4541H51.0927V36.2195ZM59.3682 66.2992H51.0925V62.0644H59.3682V66.2992ZM59.3684 59.8378H51.0927V55.6032H59.3684V59.8378ZM59.3684 53.3766H51.0927V49.142H59.3684V53.3766ZM59.3684 46.9155H51.0927V42.6807H59.3684V46.9155ZM59.3684 33.9929H51.0927V29.7582H59.3684V33.9929ZM59.3684 27.5316H51.0927V23.297H59.3684V27.5316Z" fill="#232323"/>
<path d="M68.6504 9.73527H66.7017V5.12154C66.7017 5.12154 68.6459 5.12154 68.6504 5.12154C70.0846 5.12154 70.0878 2.89498 68.6504 2.89498H39.1135V1.11328C39.1135 0.498453 38.6151 0 38.0003 0H10.4118C9.79699 0 9.29854 0.498453 9.29854 1.11328V9.73527H7.34985C6.73503 9.73527 6.23657 10.2337 6.23657 10.8486V16.3548C6.23657 16.9697 6.73503 17.4681 7.34985 17.4681H9.29839V74.8867C9.29839 75.5015 9.79685 76 10.4117 76H65.5886C66.2035 76 66.7018 75.5015 66.7018 74.8867V17.4683H68.6505C69.2655 17.4683 69.7638 16.9698 69.7638 16.355V10.8486C69.7637 10.2337 69.2654 9.73527 68.6504 9.73527ZM61.1843 5.12154H64.4754V9.73527H61.1843V5.12154ZM55.6665 5.12154H58.9577V9.73527H55.6665V5.12154ZM50.1488 5.12154H53.44V9.73527H50.1488V5.12154ZM44.6311 5.12154H47.9223V9.73527H44.6311V5.12154ZM39.1135 5.12154H42.4046V9.73527H39.1135V5.12154ZM11.5251 2.22656H36.887V9.73527H27.1345V5.08532C27.1345 4.47049 26.6362 3.97204 26.0212 3.97204H15.519C14.9041 3.97204 14.4057 4.47049 14.4057 5.08532V9.73542H11.5251V2.22656ZM24.9078 6.1986V9.73527H16.6321V6.1986H24.9078ZM44.2481 73.7734H31.7524V61.2296H44.2483V73.7734H44.2481ZM67.5374 15.2417C67.5374 15.2417 28.1639 15.2417 28.1197 15.2417C26.687 15.2417 26.6821 17.4683 28.1197 17.4683H64.4754V73.7734H46.4747V60.1163C46.4747 59.5015 45.9764 59.003 45.3614 59.003H30.639C30.024 59.003 29.5257 59.5015 29.5257 60.1163V73.7734H11.5251V17.4683C11.5251 17.4683 23.6501 17.4683 23.6665 17.4683C25.0975 17.4683 25.1046 15.2417 23.6665 15.2417H8.46313V11.9618H67.5374V15.2417Z" fill="#232323"/>
</svg>
