<svg width="77" height="77" viewBox="0 0 77 77" fill="none" xmlns="http://www.w3.org/2000/svg">
<path d="M9.625 34.8906H19.25C19.9141 34.8906 20.4531 34.3528 20.4531 33.6875V26.4688C20.4531 25.8034 19.9141 25.2656 19.25 25.2656H9.625C8.96088 25.2656 8.42188 25.8034 8.42188 26.4688V33.6875C8.42188 34.3528 8.96088 34.8906 9.625 34.8906ZM18.0469 32.4844H15.6406V27.6719H18.0469V32.4844ZM10.8281 27.6719H13.2344V32.4844H10.8281V27.6719Z" fill="#232323"/>
<path d="M24.0625 34.8906H33.6875C34.3516 34.8906 34.8906 34.3528 34.8906 33.6875V26.4688C34.8906 25.8034 34.3516 25.2656 33.6875 25.2656H24.0625C23.3984 25.2656 22.8594 25.8034 22.8594 26.4688V33.6875C22.8594 34.3528 23.3984 34.8906 24.0625 34.8906ZM32.4844 32.4844H30.0781V27.6719H32.4844V32.4844ZM25.2656 27.6719H27.6719V32.4844H25.2656V27.6719Z" fill="#232323"/>
<path d="M74.939 38.5505L39.7031 27.9799V26.4688H48.125C50.7791 26.4688 52.9375 24.3103 52.9375 21.6562C52.9375 19.4172 51.3999 17.5295 49.3257 16.9953C49.3281 16.9448 49.3281 16.8943 49.3281 16.8437C49.3281 13.5267 46.6295 10.8281 43.3125 10.8281C40.8834 10.8281 38.7298 12.2899 37.7974 14.4772C37.1573 14.5518 36.5425 14.7383 35.9614 15.0102L22.5069 1.55564C22.0364 1.08521 21.2761 1.08521 20.8056 1.55564L3.96189 18.3994C3.7357 18.6244 3.60938 18.93 3.60938 19.25V68.5781H2.40625C1.74213 68.5781 1.20312 69.1159 1.20312 69.7813V74.5938C1.20312 75.2591 1.74213 75.7969 2.40625 75.7969H74.5938C75.2579 75.7969 75.7969 75.2591 75.7969 74.5938V69.7813C75.7969 69.1159 75.2579 68.5781 74.5938 68.5781H73.3906V46.6139L74.2485 46.8713C74.3615 46.905 74.4782 46.9219 74.5938 46.9219C74.8488 46.9219 75.1015 46.8413 75.312 46.6849C75.6176 46.4563 75.7969 46.0989 75.7969 45.7188V39.7031C75.7969 39.1726 75.448 38.7033 74.939 38.5505ZM37.2969 20.4531V37.2969H6.01562V20.4531H37.2969ZM37.2969 44.5156H34.8906V39.7031H37.2969V44.5156ZM13.2344 39.7031V44.5156H10.8281V39.7031H13.2344ZM15.6406 39.7031H18.0469V44.5156H15.6406V39.7031ZM20.4531 39.7031H22.8594V44.5156H20.4531V39.7031ZM25.2656 39.7031H27.6719V44.5156H25.2656V39.7031ZM30.0781 39.7031H32.4844V44.5156H30.0781V39.7031ZM8.42188 39.7031V44.5156H6.01562V39.7031H8.42188ZM37.2969 46.9219V49.3281H6.01562V46.9219H37.2969ZM38.4218 16.8401C38.4615 16.8462 38.5746 16.8582 38.6143 16.8594C39.1966 16.9147 39.6899 16.5057 39.8307 15.9546C40.2397 14.3533 41.6714 13.2344 43.3125 13.2344C45.3025 13.2344 46.9219 14.8538 46.9219 16.8437C46.9219 17.1157 46.8786 17.4056 46.7859 17.7581C46.6885 18.1275 46.7715 18.5209 47.0109 18.8181C47.2491 19.1152 47.6221 19.2981 47.9963 19.2668C48.066 19.2644 48.1322 19.256 48.125 19.25C49.452 19.25 50.5312 20.3292 50.5312 21.6562C50.5312 22.9833 49.452 24.0625 48.125 24.0625H39.7031V19.25C39.7031 18.93 39.5768 18.6244 39.3506 18.3994L37.8515 16.9003C38.0428 16.8642 38.2341 16.8413 38.4218 16.8401ZM21.6562 4.10747L35.5957 18.0469H7.71684L21.6562 4.10747ZM6.01562 51.7344H37.2969V68.5781H30.0781V57.75C30.0781 57.0847 29.5391 56.5469 28.875 56.5469H14.4375C13.7734 56.5469 13.2344 57.0847 13.2344 57.75V68.5781H6.01562V51.7344ZM15.6406 68.5781V58.9531H20.4531V68.5781H15.6406ZM22.8594 58.9531H27.6719V68.5781H22.8594V58.9531ZM73.3906 73.3906H3.60938V70.9844H73.3906V73.3906ZM66.1719 54.1406H44.5156V51.7344H66.1719V54.1406ZM44.5156 56.5469H66.1719V58.9531H44.5156V56.5469ZM44.5156 61.3594H66.1719V68.5781H44.5156V61.3594ZM70.9844 68.5781H68.5781V50.5313C68.5781 49.8659 68.0391 49.3281 67.375 49.3281H43.3125C42.6484 49.3281 42.1094 49.8659 42.1094 50.5313V68.5781H39.7031V36.5076L70.9844 45.892V68.5781ZM73.3906 44.1018L39.7031 33.9955V30.492L73.3906 40.5983V44.1018Z" fill="#232323"/>
<path d="M60.1562 16.8438H69.7812C73.0983 16.8438 75.7969 14.1451 75.7969 10.8281C75.7969 7.74813 73.4712 5.20231 70.4839 4.85341C69.5515 2.66492 67.3979 1.20312 64.9688 1.20312C61.6517 1.20312 58.9531 3.90173 58.9531 7.21875C58.9531 7.26928 58.9531 7.31981 58.9555 7.37034C56.8813 7.90453 55.3438 9.79223 55.3438 12.0312C55.3438 14.6853 57.5022 16.8438 60.1562 16.8438ZM60.0817 9.62139C60.1226 9.62741 60.2429 9.64064 60.2838 9.64184C60.6664 9.67192 61.0309 9.49145 61.2691 9.19308C61.5086 8.89591 61.5916 8.50248 61.4941 8.13313C61.4027 7.78061 61.3594 7.49066 61.3594 7.21875C61.3594 5.22878 62.9788 3.60938 64.9688 3.60938C66.6098 3.60938 68.0415 4.72828 68.4506 6.32964C68.5914 6.88067 69.1027 7.26327 69.667 7.23439C69.7319 7.23198 69.7957 7.22477 69.7812 7.21875C71.7712 7.21875 73.3906 8.83816 73.3906 10.8281C73.3906 12.8181 71.7712 14.4375 69.7812 14.4375H60.1562C58.8292 14.4375 57.75 13.3583 57.75 12.0312C57.75 10.7042 58.8292 9.625 60.0817 9.62139Z" fill="#232323"/>
</svg>
