<svg width="73" height="73" viewBox="0 0 73 73" fill="none" xmlns="http://www.w3.org/2000/svg">
<path d="M52.3166 68.1334H18.2499C17.5784 68.1334 17.0333 68.6785 17.0333 69.35V71.7834C17.0333 72.4549 17.5784 73 18.2499 73C18.9215 73 19.4666 72.4549 19.4666 71.7834V70.5668H52.3166C52.9881 70.5668 53.5332 70.0217 53.5332 69.3502C53.5332 68.6786 52.9883 68.1334 52.3166 68.1334Z" fill="white"/>
<path d="M26.7666 30.4166C26.7666 31.0882 27.3117 31.6332 27.9832 31.6332H32.85C33.5215 31.6332 34.0666 31.0882 34.0666 30.4166V23.1166C34.0666 22.4451 33.5215 21.9 32.85 21.9H27.9834C27.3118 21.9 26.7667 22.4451 26.7667 23.1166V30.4166H26.7666ZM29.2 24.3334H31.6334V29.2H29.2V24.3334Z" fill="white"/>
<path d="M15.8166 14.6H1.21662C0.545076 14.6 0 15.1451 0 15.8166V40.15C0 40.8215 0.545076 41.3666 1.21662 41.3666C1.88816 41.3666 2.43324 40.8215 2.43324 40.15V17.0334H15.8166C16.4882 17.0334 17.0332 16.4883 17.0332 15.8168C17.0332 15.1452 16.4883 14.6 15.8166 14.6Z" fill="white"/>
<path d="M58.4 59.6166C58.4 60.2881 58.9451 60.8332 59.6166 60.8332H64.4833C65.1548 60.8332 65.6999 60.2881 65.6999 59.6166V52.3166C65.6999 51.6451 65.1548 51.1 64.4833 51.1H59.6166C58.9451 51.1 58.4 51.6451 58.4 52.3166V59.6166ZM60.8334 53.5334H63.2668V58.4H60.8334V53.5334Z" fill="white"/>
<path d="M6.08338 43.8C0.069293 43.8 0 59.4585 0 59.6166C0 62.5549 2.0939 65.0113 4.86662 65.5771V71.7834C4.86662 72.4549 5.4117 73 6.08324 73C6.75478 73 7.29986 72.4549 7.29986 71.7834V65.5771C10.0726 65.0113 12.1665 62.5549 12.1665 59.6166C12.1666 59.4585 12.0973 43.8 6.08338 43.8ZM6.08338 63.2666C4.07103 63.2666 2.43338 61.629 2.43338 59.6166C2.43338 53.5552 4.06134 46.2332 6.08338 46.2332C8.10542 46.2332 9.73338 53.5552 9.73338 59.6166C9.73338 61.629 8.09573 63.2666 6.08338 63.2666Z" fill="white"/>
<path d="M13.3834 36.5H8.51667C7.84512 36.5 7.30005 37.0451 7.30005 37.7166V40.15C7.30005 40.8215 7.84512 41.3666 8.51667 41.3666C9.18821 41.3666 9.73329 40.8215 9.73329 40.15V38.9334H12.1667V45.0168C12.1667 45.6883 12.7117 46.2334 13.3833 46.2334C14.0548 46.2334 14.5999 45.6883 14.5999 45.0168V37.7168C14.6 37.0451 14.055 36.5 13.3834 36.5Z" fill="white"/>
<path d="M59.6166 31.6334H64.4833C65.1548 31.6334 65.6999 31.0883 65.6999 30.4168V23.1168C65.6999 22.4452 65.1548 21.9001 64.4833 21.9001H59.6166C58.9451 21.9001 58.4 22.4452 58.4 23.1168V30.4168C58.4 31.0883 58.9451 31.6334 59.6166 31.6334ZM60.8334 24.3334H63.2668V29.2H60.8334V24.3334Z" fill="white"/>
<path d="M13.3834 21.9H8.51667C7.84512 21.9 7.30005 22.4451 7.30005 23.1166V30.4166C7.30005 31.0882 7.84512 31.6332 8.51667 31.6332H13.3833C14.0548 31.6332 14.5999 31.0882 14.5999 30.4166V23.1166C14.6 22.4451 14.055 21.9 13.3834 21.9ZM12.1667 29.2H9.73343V24.3334H12.1668V29.2H12.1667Z" fill="white"/>
<path d="M38.9333 30.4166C38.9333 31.0882 39.4784 31.6332 40.15 31.6332H45.0166C45.6881 31.6332 46.2332 31.0882 46.2332 30.4166V23.1166C46.2332 22.4451 45.6881 21.9 45.0166 21.9H40.15C39.4784 21.9 38.9333 22.4451 38.9333 23.1166V30.4166ZM41.3666 24.3334H43.8V29.2H41.3666V24.3334Z" fill="white"/>
<path d="M71.7834 14.6H57.1834C56.5119 14.6 55.9668 15.1451 55.9668 15.8166C55.9668 16.4882 56.5119 17.0332 57.1834 17.0332H70.5668V65.9238C70.1848 65.7875 69.7796 65.7 69.3502 65.7C69.1397 65.7 68.9304 65.7183 68.7248 65.7547C67.8853 64.2424 66.2879 63.2666 64.4836 63.2666C62.6792 63.2666 61.0818 64.2424 60.2423 65.7547C60.0367 65.7183 59.8274 65.7 59.6169 65.7C57.6046 65.7 55.9669 67.3377 55.9669 69.35C55.9669 71.3623 57.6046 73 59.6169 73H69.35C71.3624 73 73 71.3623 73 69.35V15.8166C73 15.1451 72.455 14.6 71.7834 14.6ZM69.35 70.5666H59.6167C58.9463 70.5666 58.4 70.0204 58.4 69.35C58.4 68.6796 58.9463 68.1334 59.6167 68.1334C59.8502 68.1334 60.0716 68.2003 60.2761 68.3317C60.6094 68.5459 61.0256 68.5848 61.393 68.4364C61.7605 68.2879 62.0318 67.9691 62.1206 67.5835C62.3774 66.4751 63.3495 65.7 64.4834 65.7C65.6173 65.7 66.5894 66.4751 66.8462 67.5835C66.935 67.9691 67.2064 68.2879 67.5738 68.4364C67.9401 68.5848 68.3573 68.5459 68.6908 68.3317C69.4828 67.8207 70.5668 68.4461 70.5668 69.35C70.5666 70.0204 70.0204 70.5666 69.35 70.5666Z" fill="white"/>
<path d="M40.15 17.0334H45.0166C45.6881 17.0334 46.2332 16.4883 46.2332 15.8168V8.51676C46.2332 7.84522 45.6881 7.30014 45.0166 7.30014H40.15C39.4784 7.30014 38.9333 7.84522 38.9333 8.51676V15.8168C38.9333 16.4883 39.4784 17.0334 40.15 17.0334ZM41.3666 9.73338H43.8V14.6H41.3666V9.73338Z" fill="white"/>
<path d="M38.9333 45.0166C38.9333 45.6882 39.4784 46.2332 40.15 46.2332H45.0166C45.6881 46.2332 46.2332 45.6882 46.2332 45.0166V37.7166C46.2332 37.0451 45.6881 36.5 45.0166 36.5H40.15C39.4784 36.5 38.9333 37.0451 38.9333 37.7166V45.0166ZM41.3666 38.9334H43.8V43.8H41.3666V38.9334Z" fill="white"/>
<path d="M27.9833 17.0334H32.85C33.5215 17.0334 34.0666 16.4883 34.0666 15.8168V8.51676C34.0666 7.84522 33.5215 7.30014 32.85 7.30014H27.9833C27.3118 7.30014 26.7667 7.84522 26.7667 8.51676V15.8168C26.7666 16.4883 27.3117 17.0334 27.9833 17.0334ZM29.2 9.73338H31.6333V14.6H29.2V9.73338Z" fill="white"/>
<path d="M35.6361 58.7529C35.4171 58.984 35.2832 59.3004 35.2832 59.6167C35.2832 59.9331 35.4171 60.2494 35.6361 60.4806C35.8672 60.6996 36.1836 60.8335 36.5 60.8335C36.8163 60.8335 37.1326 60.6996 37.3638 60.4806C37.5828 60.2495 37.7167 59.9331 37.7167 59.6167C37.7167 59.3004 37.5828 58.9841 37.3638 58.7529C36.9015 58.3026 36.0985 58.3026 35.6361 58.7529Z" fill="white"/>
<path d="M26.7666 45.0166C26.7666 45.6882 27.3117 46.2332 27.9832 46.2332H32.85C33.5215 46.2332 34.0666 45.6882 34.0666 45.0166V37.7166C34.0666 37.0451 33.5215 36.5 32.85 36.5H27.9834C27.3118 36.5 26.7667 37.0451 26.7667 37.7166V45.0166H26.7666ZM29.2 38.9334H31.6334V43.8H29.2V38.9334Z" fill="white"/>
<path d="M24.3334 52.3166C24.3334 52.9881 24.8784 53.5332 25.55 53.5332H29.2V64.4832C29.2 65.1548 29.7451 65.6998 30.4166 65.6998C31.0882 65.6998 31.6332 65.1548 31.6332 64.4832V53.5332H41.3666V64.4832C41.3666 65.1548 41.9117 65.6998 42.5832 65.6998C43.2548 65.6998 43.7999 65.1548 43.7999 64.4832V53.5332H47.4499C48.1214 53.5332 48.6665 52.9881 48.6665 52.3166C48.6665 51.6451 48.1214 51.1 47.4499 51.1H25.55C24.8784 51.1 24.3334 51.6451 24.3334 52.3166Z" fill="white"/>
<path d="M58.4 45.0166C58.4 45.6882 58.9451 46.2332 59.6166 46.2332H64.4833C65.1548 46.2332 65.6999 45.6882 65.6999 45.0166V37.7166C65.6999 37.0451 65.1548 36.5 64.4833 36.5H59.6166C58.9451 36.5 58.4 37.0451 58.4 37.7166V45.0166ZM60.8334 38.9334H63.2668V43.8H60.8334V38.9334Z" fill="white"/>
<path d="M52.3167 0H20.6834C20.0119 0 19.4668 0.545076 19.4668 1.21662V64.4832C19.4668 65.1548 20.0119 65.6999 20.6834 65.6999C21.355 65.6999 21.9 65.1548 21.9 64.4832V2.43324H51.1V64.4832C51.1 65.1548 51.6451 65.6999 52.3167 65.6999C52.9882 65.6999 53.5333 65.1548 53.5333 64.4832V1.21662C53.5334 0.545076 52.9883 0 52.3167 0Z" fill="white"/>
</svg>
