<svg width="68" height="68" viewBox="0 0 68 68" fill="none" xmlns="http://www.w3.org/2000/svg">
<g clip-path="url(#clip0)">
<path d="M3.53643 20.1531H4.9708V24.892C4.9708 26.3695 6.17289 27.5715 7.65029 27.5715H9.61778C10.2551 27.5715 10.8407 27.3469 11.3012 26.9738C11.7616 27.3469 12.3471 27.5715 12.9846 27.5715H14.9521C16.4295 27.5715 17.6315 26.3695 17.6315 24.892V19.5875H20.3063V44.173H17.1909C15.7382 44.173 14.5563 45.3548 14.5563 46.8075V51.7646C14.5563 53.0885 15.5388 54.1843 16.8125 54.3688V66C16.8125 67.1029 17.7096 68 18.8125 68H22.8414C23.9443 68 24.8414 67.1029 24.8414 66V58.8488H31.6765C32.2267 58.8488 32.6726 58.4028 32.6726 57.8527C32.6726 57.3026 32.2267 56.8566 31.6765 56.8566C30.3796 56.8566 20.2831 56.8566 18.8047 56.8566V54.3992H49.1967V56.8566C47.7176 56.8566 37.6132 56.8566 36.3249 56.8566C35.7747 56.8566 35.3288 57.3026 35.3288 57.8527C35.3288 58.4028 35.7747 58.8488 36.3249 58.8488H43.1601V66C43.1601 67.1029 44.0572 68 45.1601 68H49.1889C50.2917 68 51.189 67.1029 51.189 66C51.189 64.6514 51.189 55.7686 51.189 54.3688C52.4627 54.1843 53.4452 53.0885 53.4452 51.7646V46.8075C53.4452 45.3548 52.2635 44.173 50.8106 44.173H47.6953V34.2044C47.6953 33.6543 47.2494 33.2083 46.6992 33.2083C46.1489 33.2083 45.7031 33.6543 45.7031 34.2044V44.173H42.361C42.361 41.2893 42.361 22.5363 42.361 19.5875H45.7031V29.5561C45.7031 30.1062 46.1489 30.5522 46.6992 30.5522C47.2494 30.5522 47.6953 30.1062 47.6953 29.5561V19.5875H50.37V24.892C50.37 26.3695 51.572 27.5715 53.0494 27.5715H55.0169C55.6543 27.5715 56.2399 27.3469 56.7003 26.9738C57.1608 27.3469 57.7462 27.5715 58.3836 27.5715H60.3512C61.8286 27.5715 63.0307 26.3695 63.0307 24.892V20.1531H64.4651C65.9425 20.1531 67.1446 18.9511 67.1446 17.4736V15.5061C67.1446 14.0286 65.9425 12.8266 64.4651 12.8266H63.0307V8.08775C63.0307 6.61034 61.8286 5.40839 60.3512 5.40839H58.3836C57.7462 5.40839 57.1608 5.63298 56.7003 6.00605C56.2399 5.63298 55.6544 5.40839 55.0169 5.40839H53.0494C51.572 5.40839 50.37 6.61034 50.37 8.08775V13.3924H47.6953V2.67936C47.6951 1.20195 46.4932 0 45.0158 0H43.0483C41.5709 0 40.3688 1.20195 40.3688 2.67936V9.39091H27.6326V2.67936C27.6326 1.20195 26.4306 0 24.9532 0H22.9856C21.5082 0 20.3063 1.20195 20.3063 2.67936V13.3924H17.6315V8.08775C17.6315 6.61034 16.4295 5.40839 14.9521 5.40839H12.9846C12.3472 5.40839 11.7616 5.63298 11.3012 6.00605C10.8407 5.63298 10.2553 5.40839 9.61778 5.40839H7.65029C6.17289 5.40839 4.9708 6.61034 4.9708 8.08775V12.8266H3.53643C2.05902 12.8266 0.856934 14.0286 0.856934 15.5061V17.4736C0.856934 18.9511 2.05902 20.1531 3.53643 20.1531ZM22.2984 19.5873H25.6404V44.1729H22.2984V19.5873ZM27.6326 28.7131H40.3688V38.9265H27.6326V28.7131ZM40.3686 26.7209H27.6325V23.5888H40.3686V26.7209ZM22.8482 58.8488L22.8414 66.0078L18.8048 66.0026C18.8048 66.0025 18.8047 66.0016 18.8047 66V58.8488H22.8482ZM49.1887 66.0078L45.1522 66V58.8488H49.1956L49.1887 66.0078ZM50.8105 46.1652C51.1647 46.1652 51.4529 46.4533 51.4529 46.8075V51.7646C51.4529 52.1188 51.1647 52.4069 50.8105 52.4069C49.0571 52.4069 18.7687 52.4069 17.1907 52.4069C16.8365 52.4069 16.5483 52.1188 16.5483 51.7646V46.8075C16.5483 46.4533 16.8365 46.1652 17.1907 46.1652H50.8105ZM27.6326 44.173V40.9187H40.3688V44.173H27.6326ZM40.3686 21.5966H27.6325V19.5875H40.3686V21.5966ZM24.9655 17.5951V15.3845H43.0359V17.5951C42.4179 17.5951 25.7157 17.5951 24.9655 17.5951ZM64.465 14.8188C64.8375 14.8188 65.1523 15.1336 65.1523 15.5061V17.4736C65.1523 17.8461 64.8375 18.1609 64.465 18.1609H63.0306V14.8188H64.465ZM58.3835 7.40058H60.3511C60.7236 7.40058 61.0384 7.71534 61.0384 8.08775V24.892C61.0384 25.2645 60.7236 25.5793 60.3511 25.5793H58.3835C58.0109 25.5793 57.6963 25.2645 57.6963 24.892V8.08775C57.6963 7.71521 58.0109 7.40058 58.3835 7.40058ZM52.362 8.08775C52.362 7.71521 52.6768 7.40058 53.0493 7.40058H55.0168C55.3893 7.40058 55.7041 7.71534 55.7041 8.08775V24.892C55.7041 25.2645 55.3893 25.5793 55.0168 25.5793H53.0493C52.6703 25.5793 52.362 25.271 52.362 24.892C52.362 24.5063 52.362 8.60891 52.362 8.08775ZM50.3698 17.5951C48.5818 17.5951 47.0248 17.5951 45.028 17.5951V15.3845H50.3698V17.5951ZM42.3608 2.67936C42.3608 2.30682 42.6756 1.99219 43.0481 1.99219H45.0156C45.3947 1.99219 45.7029 2.30045 45.7029 2.67936V13.3924C44.4935 13.3924 43.5702 13.3924 42.3608 13.3924C42.3608 12.1476 42.3608 3.978 42.3608 2.67936ZM40.3686 11.3831V13.3923H27.6325V11.3831H40.3686ZM22.2984 2.67936C22.2984 2.30682 22.6131 1.99219 22.9856 1.99219H24.9532C25.3258 1.99219 25.6404 2.30695 25.6404 2.67936V13.3924C24.4313 13.3924 23.5102 13.3924 22.2984 13.3924V2.67936ZM22.9733 15.3846V17.5953C20.9448 17.5953 19.459 17.5953 17.6315 17.5953V15.3846H22.9733ZM12.9846 7.40058H14.9521C15.3246 7.40058 15.6394 7.71534 15.6394 8.08775V24.892C15.6394 25.271 15.3311 25.5793 14.9521 25.5793H12.9846C12.612 25.5793 12.2973 25.2645 12.2973 24.892V8.08775C12.2973 7.71521 12.612 7.40058 12.9846 7.40058ZM6.96299 8.08775C6.96299 7.71521 7.27775 7.40058 7.65029 7.40058H9.61778C9.99032 7.40058 10.3051 7.71534 10.3051 8.08775V24.892C10.3051 25.271 9.99682 25.5793 9.61778 25.5793H7.65029C7.27125 25.5793 6.96299 25.271 6.96299 24.892C6.96299 24.1377 6.96299 8.84465 6.96299 8.08775ZM2.84912 15.5061C2.84912 15.1271 3.15738 14.8188 3.53643 14.8188H4.9708V18.1609H3.53643C3.15738 18.1609 2.84912 17.8527 2.84912 17.4736V15.5061Z" fill="white"/>
</g>
<defs>
<clipPath id="clip0">
<rect width="68" height="68" fill="white" transform="translate(0.000488281)"/>
</clipPath>
</defs>
</svg>
