<svg width="77" height="77" viewBox="0 0 77 77" fill="none" xmlns="http://www.w3.org/2000/svg">
<path d="M72.5404 61.2134L60.3027 48.9758C59.6531 48.3226 58.8804 47.8047 58.0292 47.4521C57.1781 47.0996 56.2655 46.9193 55.3442 46.9219C54.8653 46.9219 54.3876 46.9706 53.9185 47.0671C50.9447 43.079 49.3353 38.2389 49.3286 33.2643C49.3286 28.6632 48.4224 24.1071 46.6616 19.8563C44.9008 15.6054 42.3201 11.743 39.0666 8.4896C37.1424 6.55489 34.8536 5.02104 32.3326 3.97684C29.8116 2.93263 27.1086 2.39881 24.3799 2.40627C12.9273 2.40627 3.60986 11.7237 3.60986 23.1763C3.60884 28.2233 5.4465 33.0978 8.7791 36.888L10.5864 35.2995C7.43873 31.7181 5.80742 27.0528 6.03751 22.2903C6.26759 17.5277 8.34103 13.0414 11.8193 9.78008C15.2976 6.51876 19.908 4.73818 24.6755 4.81491C29.443 4.89163 33.9937 6.81964 37.3652 10.1912C40.3952 13.2212 42.7988 16.8183 44.4386 20.7772C46.0784 24.7361 46.9224 28.9792 46.9224 33.2643C46.927 35.7276 46.1993 38.1367 44.8318 40.1855C43.4643 42.2344 41.5187 43.8306 39.2421 44.7713C39.0804 44.8385 38.9353 44.9401 38.817 45.0691C38.6986 45.1982 38.6099 45.3514 38.5569 45.5183C38.5039 45.6852 38.488 45.8616 38.5102 46.0353C38.5325 46.2089 38.5924 46.3756 38.6857 46.5237L39.8888 48.4333C40.0488 48.6872 40.2979 48.8722 40.5873 48.9519C43.362 49.7126 45.9686 50.9892 48.2707 52.7149C48.0748 53.6645 48.0771 54.6443 48.2775 55.593L50.6316 55.0945C50.4728 54.3442 50.5038 53.566 50.7219 52.8307C50.9401 52.0953 51.3384 51.4261 51.8808 50.8838L52.0873 50.6771C52.9284 49.8359 54.0624 49.3528 55.2517 49.3291C56.4411 49.3053 57.5934 49.7428 58.4674 50.5498C56.7788 50.6618 55.1889 51.3854 53.9952 52.585L53.7887 52.7915C53.1945 53.3851 52.7121 54.0808 52.3647 54.8455L54.5549 55.8421C54.783 55.3399 55.0998 54.8829 55.4902 54.4931L55.6967 54.2865C56.5603 53.423 57.7314 52.9378 58.9525 52.9375C60.1737 52.9373 61.345 53.4219 62.209 54.285L63.2858 55.3618C61.5951 55.4726 60.0028 56.1964 58.8077 57.3976L58.6014 57.6039C58.3861 57.8192 58.1851 58.0483 57.9996 58.2896L59.9075 59.7559C60.0293 59.5974 60.1613 59.447 60.3027 59.3056L60.5092 59.099C61.3503 58.2578 62.4843 57.7747 63.6737 57.7509C64.863 57.7272 66.0154 58.1647 66.8894 58.9717C65.2007 59.0836 63.6107 59.8072 62.4171 61.0069L62.2105 61.2136C60.8955 62.5286 60.1567 64.3122 60.1567 66.172C60.1568 68.0318 60.8955 69.8153 62.2106 71.1304L62.417 71.3367C63.7321 72.6518 65.5157 73.3906 67.3754 73.3907C69.2352 73.3907 71.0188 72.6519 72.3339 71.3369L72.5405 71.1302C73.8555 69.8152 74.5943 68.0316 74.5942 66.1718C74.5942 64.3121 73.8554 62.5285 72.5404 61.2134L72.5404 61.2134ZM50.3858 48.9757L50.1793 49.1823C49.8072 49.5548 49.478 49.9676 49.1977 50.4132C46.9116 48.7871 44.3707 47.5529 41.6793 46.7612L41.4453 46.3898C44.1965 44.9321 46.4185 42.6445 47.7956 39.8521C48.5783 42.7705 49.8721 45.5271 51.617 47.9939C51.1713 48.2742 50.7583 48.6035 50.3858 48.9757V48.9757ZM70.839 69.4288L70.6324 69.6354C69.7686 70.4992 68.597 70.9844 67.3754 70.9844C66.1538 70.9844 64.9823 70.4991 64.1185 69.6353L63.9121 69.4289C63.0483 68.5651 62.563 67.3936 62.563 66.172C62.563 64.9504 63.0482 63.7788 63.912 62.915L64.1186 62.7084C64.9824 61.8446 66.154 61.3594 67.3756 61.3594C68.5971 61.3594 69.7687 61.8447 70.6325 62.7085L70.839 62.915H70.839C71.7027 63.7788 72.188 64.9503 72.188 66.1719C72.188 67.3935 71.7027 68.565 70.839 69.4288V69.4288Z" fill="white"/>
<path d="M12.8826 30.9289L14.4381 29.3734L16.346 31.2813L13.5874 34.0399L15.2888 35.7414L18.0475 32.9828L19.603 34.5383L21.3045 32.8367L19.749 31.2813L21.6569 29.3734L23.5647 31.2813L22.0093 32.8367L23.7107 34.5383L25.2662 32.9828L27.1741 34.8907L26.8218 35.243L28.5232 36.9446L28.8756 36.5922L30.4312 38.1477L32.1326 36.4461L30.5771 34.8907L32.485 32.9828L34.3929 34.8907L32.8374 36.4461L34.5388 38.1477L36.0944 36.5922L40.0561 40.554L41.7576 38.8524L37.7959 34.8907L39.7037 32.9828L42.4624 35.7415L44.1638 34.0399L41.4053 31.2813L42.9607 29.7258L41.2593 28.0242L39.7037 29.5798L37.7959 27.6719L39.7037 25.764L41.2593 27.3196L42.9607 25.618L41.4053 24.0625L42.9607 22.5071L41.2593 20.8055L39.7037 22.361L37.7959 20.4532L39.3513 18.8977L37.6499 17.1961L36.0944 18.7516L34.1865 16.8438L36.9451 14.0852L35.2437 12.3836L32.485 15.1423L30.5771 13.2344L32.1326 11.6789L30.4312 9.97736L28.8756 11.5329L26.9678 9.62503L28.5232 8.06957L26.8218 6.36798L25.2662 7.92351L23.7107 6.36798L22.0093 8.06957L23.5647 9.62503L21.6569 11.5329L18.8982 8.77423L17.1968 10.4758L19.9554 13.2344L18.0475 15.1423L15.2888 12.3836L13.5874 14.0852L16.346 16.8438L14.4381 18.7516L11.6795 15.993L9.97803 17.6946L12.7366 20.4532L10.8287 22.361L9.27322 20.8055L7.57178 22.5071L9.12723 24.0625L7.57178 25.618L9.27322 27.3196L10.8287 25.764L12.7366 27.6719L11.1812 29.2274L12.8826 30.9289ZM18.0475 29.5798L16.1396 27.6719L18.0475 25.764L19.9554 27.6719L18.0475 29.5798ZM28.8756 25.9704L26.9678 24.0625L28.8756 22.1547L30.7835 24.0625L28.8756 25.9704ZM32.485 25.764L34.3929 27.6719L32.485 29.5798L30.5771 27.6719L32.485 25.764ZM25.2662 22.361L23.3584 20.4532L25.2662 18.5453L27.1741 20.4532L25.2662 22.361ZM23.5647 24.0625L21.6569 25.9704L19.749 24.0625L21.6569 22.1547L23.5647 24.0625ZM23.3584 27.6719L25.2662 25.764L27.1741 27.6719L25.2662 29.5798L23.3584 27.6719ZM28.8756 33.1891L26.9678 31.2813L28.8756 29.3734L30.7835 31.2813L28.8756 33.1891ZM38.0022 31.2813L36.0944 33.1891L34.1865 31.2813L36.0944 29.3734L38.0022 31.2813ZM38.0022 24.0625L36.0944 25.9704L34.1865 24.0625L36.0944 22.1547L38.0022 24.0625ZM34.3929 20.4532L32.485 22.361L30.5771 20.4532L32.485 18.5453L34.3929 20.4532ZM30.7835 16.8438L28.8756 18.7516L26.9678 16.8438L28.8756 14.9359L30.7835 16.8438ZM25.2662 11.3265L27.1741 13.2344L25.2662 15.1423L23.3584 13.2344L25.2662 11.3265ZM21.6569 14.9359L23.5647 16.8438L21.6569 18.7516L19.749 16.8438L21.6569 14.9359ZM18.0475 18.5453L19.9554 20.4532L18.0475 22.361L16.1396 20.4532L18.0475 18.5453ZM12.5303 24.0625L14.4381 22.1547L16.346 24.0625L14.4381 25.9704L12.5303 24.0625Z" fill="white"/>
<path d="M23.9832 50.6464C25.1978 49.8876 26.5602 49.3965 27.9796 49.2058C29.399 49.0151 30.8427 49.1292 32.2145 49.5405L35.3164 50.4714C35.8329 52.0439 36.0956 53.6886 36.0945 55.3438H38.5007C38.4999 51.3067 37.1451 47.3865 34.6532 44.2103C32.1612 41.0341 28.6761 38.7853 24.7552 37.8238C20.8342 36.8622 16.7041 37.2434 13.0254 38.9063C9.34675 40.5693 6.33204 43.4179 4.46351 46.9965C2.59498 50.5752 1.98061 54.6771 2.71865 58.6462C3.4567 62.6152 5.50453 66.2221 8.53458 68.8899C11.5646 71.5576 15.4018 73.1321 19.4324 73.3615C23.463 73.5909 27.454 72.462 30.7672 70.1552L29.3906 68.1816C27.8932 69.2274 26.2231 70.001 24.4571 70.4666L22.7611 68.5291C20.4979 65.9422 19.2506 62.6219 19.2507 59.1848C19.2494 57.5017 19.6722 55.8455 20.4801 54.3691C22.4605 55.1097 24.3617 56.0471 26.1551 57.1671L30.6446 59.9734L31.9199 57.9329L27.4303 55.1266C25.6831 54.0362 23.8406 53.1068 21.9254 52.3496C22.5319 51.6922 23.2241 51.1194 23.9832 50.6464ZM34.0228 47.571L32.9063 47.2359C31.2068 46.7262 29.4182 46.5847 27.6597 46.8209C25.9012 47.0571 24.2133 47.6655 22.7085 48.6056C21.4785 49.3724 20.3932 50.35 19.5026 51.4936C18.4615 51.1706 17.4002 50.8976 16.3277 50.6755C18.8659 46.617 22.3961 43.2719 26.5853 40.9558C29.7148 42.2983 32.3244 44.6195 34.0228 47.571ZM23.499 40.0017C19.5021 42.6109 16.1711 46.1192 13.7725 50.2459C12.7108 50.109 11.6394 50.0232 10.5683 49.9873C11.3134 47.4411 11.7975 44.8257 12.0133 42.1815C15.4157 39.9964 19.5326 39.2151 23.499 40.0017ZM4.81321 55.3438C4.81318 54.4508 4.88946 53.5595 5.0412 52.6795C5.75146 52.58 6.4657 52.5043 7.18392 52.4524C6.54308 54.0793 5.78695 55.6584 4.9213 57.1777C4.84957 56.569 4.81348 55.9567 4.81321 55.3438ZM9.34571 44.3444C9.06399 46.2593 8.63125 48.1489 8.05155 49.9956C7.26445 50.0274 6.47676 50.0856 5.69306 50.1721C6.46408 47.983 7.71167 45.9925 9.34571 44.3444ZM5.69433 60.5191C7.37022 57.9732 8.74313 55.2404 9.78517 52.3761C10.712 52.3864 11.6401 52.4381 12.5631 52.5301C10.4652 56.9084 9.4435 61.7244 9.58296 66.5774C7.8344 64.8869 6.5031 62.8128 5.69433 60.5191ZM20.9502 70.1137L21.6713 70.9376C21.268 70.9685 20.8622 70.9841 20.4538 70.9844C17.5037 70.9878 14.6135 70.1517 12.1208 68.5738C11.5688 63.1679 12.5944 57.7178 15.0737 52.8824C16.1154 53.0713 17.147 53.3124 18.1646 53.6047C17.2951 55.3362 16.843 57.2472 16.8445 59.1848C16.8443 63.2047 18.3032 67.0881 20.9502 70.1137Z" fill="white"/>
<path d="M49.3288 57.75C47.8515 57.7488 46.4003 58.1388 45.1225 58.8803C43.8423 58.1401 42.3897 57.7501 40.9109 57.7494C39.4321 57.7487 37.9792 58.1374 36.6983 58.8764C35.4174 59.6154 34.3536 60.6786 33.614 61.9592C32.8743 63.2397 32.4849 64.6925 32.4849 66.1713C32.4848 67.6501 32.8741 69.1028 33.6137 70.3834C34.3532 71.6641 35.4169 72.7274 36.6978 73.4664C37.9787 74.2055 39.4316 74.5943 40.9104 74.5937C42.3892 74.5931 43.8418 74.2032 45.1221 73.4631C46.2407 74.1086 47.4929 74.4881 48.7817 74.5723C50.0705 74.6565 51.3614 74.4431 52.5545 73.9486C53.7476 73.4541 54.811 72.6918 55.6624 71.7206C56.5137 70.7493 57.1303 69.5953 57.4643 68.3477C57.7983 67.1001 57.8408 65.7924 57.5886 64.5257C57.3364 63.259 56.7961 62.0673 56.0097 61.0429C55.2232 60.0184 54.2116 59.1885 53.0532 58.6175C51.8947 58.0465 50.6204 57.7497 49.3288 57.75ZM55.3204 65.6494L54.9921 65.3212C54.5644 64.8934 54.0567 64.5541 53.4978 64.3226C52.939 64.0911 52.34 63.9719 51.7351 63.9719C51.1302 63.9719 50.5312 64.0911 49.9724 64.3226C49.4135 64.5541 48.9058 64.8934 48.4781 65.3212C48.2738 65.5255 48.0313 65.6875 47.7644 65.7981C47.4975 65.9086 47.2114 65.9655 46.9225 65.9655C46.6336 65.9655 46.3476 65.9085 46.0807 65.798C45.8138 65.6874 45.5713 65.5253 45.3671 65.321L43.8153 63.7693C44.3492 62.5431 45.2766 61.5299 46.4508 60.8898C47.625 60.2497 48.9791 60.0192 50.299 60.2349C51.6189 60.4506 52.8292 61.1001 53.7386 62.0807C54.648 63.0613 55.2046 64.317 55.3204 65.6494H55.3204ZM40.907 60.1562C41.6433 60.1557 42.3735 60.2905 43.0611 60.554C42.0454 61.6838 41.3551 63.068 41.0636 64.5591C40.6943 64.7655 40.3553 65.022 40.0562 65.3212C39.8519 65.5255 39.6094 65.6875 39.3425 65.7981C39.0756 65.9086 38.7895 65.9655 38.5007 65.9655C38.2118 65.9655 37.9257 65.9085 37.6588 65.798C37.3919 65.6874 37.1494 65.5253 36.9452 65.321L35.3935 63.7693C35.8619 62.6964 36.6329 61.7833 37.6121 61.1416C38.5913 60.4999 39.7363 60.1575 40.907 60.1562ZM34.9155 66.6943L35.2437 67.0225C35.9934 67.772 36.9786 68.2401 38.0332 68.3479C39.0878 68.4556 40.1473 68.1965 41.0331 67.6142C41.3034 69.1691 42.0064 70.6163 43.0614 71.79C42.1915 72.1229 41.2562 72.2493 40.3292 72.1593C39.4022 72.0693 38.5087 71.7654 37.719 71.2714C36.9294 70.7775 36.2652 70.107 35.7787 69.3127C35.2922 68.5185 34.9967 67.6222 34.9155 66.6943ZM49.3288 72.1875C47.8246 72.1855 46.3755 71.6206 45.2667 70.6041C44.1579 69.5875 43.4696 68.1928 43.3373 66.6943L43.6656 67.0225C44.0933 67.4502 44.601 67.7896 45.1599 68.0211C45.7187 68.2526 46.3177 68.3717 46.9226 68.3717C47.5275 68.3717 48.1265 68.2526 48.6853 68.0211C49.2442 67.7896 49.7519 67.4502 50.1796 67.0225C50.3839 66.8182 50.6264 66.6562 50.8933 66.5456C51.1602 66.4351 51.4463 66.3782 51.7352 66.3782C52.0241 66.3782 52.3101 66.4351 52.577 66.5457C52.8439 66.6563 53.0864 66.8183 53.2906 67.0226L54.8424 68.5743C54.3739 69.6472 53.6029 70.5604 52.6237 71.2021C51.6445 71.8437 50.4996 72.1862 49.3288 72.1875Z" fill="white"/>
</svg>
