<svg width="72" height="72" viewBox="0 0 72 72" fill="none" xmlns="http://www.w3.org/2000/svg">
<g clip-path="url(#clip0)">
<path d="M70.9305 44.7464C68.3782 44.7464 67.0639 45.7762 65.9043 46.6849C64.8468 47.5136 64.0115 48.1681 62.1973 48.1681C60.3831 48.1681 59.5476 47.5135 58.4903 46.6849C57.3307 45.7763 56.0164 44.7464 53.4641 44.7464C51.9962 44.7464 50.7735 45.0892 49.6161 45.8257C49.1179 46.1427 48.9708 46.8036 49.2878 47.3018C49.6048 47.8001 50.2654 47.947 50.7639 47.6301C51.3432 47.2616 52.1169 46.885 53.4641 46.885C55.2783 46.885 56.1137 47.5396 57.1711 48.3682C58.3307 49.2768 59.6448 50.3067 62.1973 50.3067C64.7496 50.3067 66.0639 49.2769 67.2235 48.3682C68.281 47.5395 69.1163 46.885 70.9305 46.885C71.5211 46.885 71.9998 46.4062 71.9998 45.8157C71.9998 45.2252 71.5211 44.7464 70.9305 44.7464Z" fill="white"/>
<path d="M7.66434 47.7352C7.09144 47.4659 6.60741 47.0865 6.09497 46.6851C4.93552 45.7763 3.62152 44.7464 1.06931 44.7464C0.478688 44.7464 0 45.2252 0 45.8157C0 46.4062 0.478688 46.885 1.06931 46.885C2.88323 46.885 3.71841 47.5396 4.77562 48.3682C5.35922 48.8254 5.96236 49.2982 6.75408 49.6705C6.90103 49.7397 7.05586 49.7725 7.20844 49.7725C7.60978 49.7725 7.99467 49.5452 8.17678 49.1579C8.42836 48.6234 8.19872 47.9865 7.66434 47.7352Z" fill="white"/>
<path d="M54.6504 5.70062C47.1623 5.70062 41.0702 11.7921 41.0702 19.2794V29.6516H17.761V19.2794C17.761 15.3298 20.9748 12.1165 24.9254 12.1165C28.875 12.1165 32.0881 15.3298 32.0881 19.2794V19.6001C32.0881 21.3689 33.5273 22.8081 35.296 22.8081C37.0648 22.8081 38.504 21.3689 38.504 19.6001V19.2794C38.504 11.7919 32.4125 5.70062 24.9254 5.70062C17.4372 5.70062 11.3452 11.7919 11.3452 19.2794V53.1251C11.3452 53.7156 11.824 54.1945 12.4145 54.1945C13.0052 54.1945 13.4838 53.7156 13.4838 53.1251V19.2794C13.4838 12.9714 18.6165 7.83925 24.9254 7.83925C31.2334 7.83925 36.3654 12.9714 36.3654 19.2794V19.6001C36.3654 20.1896 35.8857 20.6695 35.296 20.6695C34.7064 20.6695 34.2267 20.1896 34.2267 19.6001V19.2794C34.2267 14.1505 30.054 9.97787 24.9254 9.97787C19.7957 9.97787 15.6225 14.1506 15.6225 19.2794V50.496C15.6225 51.0865 16.1012 51.5653 16.6918 51.5653C17.2824 51.5653 17.7611 51.0865 17.7611 50.496V48.8984H41.0704V53.1351C41.0704 53.7256 41.5491 54.2044 42.1397 54.2044C42.7303 54.2044 43.209 53.7256 43.209 53.1351V19.2794C43.209 12.9714 48.3417 7.83925 54.6505 7.83925C60.9586 7.83925 66.0907 12.9714 66.0907 19.2794V19.6001C66.0907 20.1896 65.611 20.6695 65.0214 20.6695C64.4317 20.6695 63.952 20.1896 63.952 19.6001V19.2794C63.952 14.1505 59.7793 9.97787 54.6505 9.97787C49.5208 9.97787 45.3476 14.1506 45.3476 19.2794V23.1809C45.3476 23.7714 45.8263 24.2502 46.417 24.2502C47.0076 24.2502 47.4863 23.7714 47.4863 23.1809V19.2794C47.4863 15.3298 50.7001 12.1165 54.6507 12.1165C58.6003 12.1165 61.8136 15.3298 61.8136 19.2794V19.6001C61.8136 21.3689 63.2527 22.8081 65.0215 22.8081C66.7903 22.8081 68.2294 21.3689 68.2294 19.6001V19.2794C68.2292 11.7921 62.1377 5.70062 54.6504 5.70062ZM17.7611 31.7904H41.0702V34.1427H17.7611V31.7904ZM41.0704 42.2688H26.2437C25.6531 42.2688 25.1744 42.7476 25.1744 43.3381C25.1744 43.9286 25.6531 44.4074 26.2437 44.4074H41.0701V46.7598H17.7611V44.4074H22.6795C23.2701 44.4074 23.7488 43.9286 23.7488 43.3381C23.7488 42.7476 23.2701 42.2688 22.6795 42.2688H17.761V36.2811H41.0704V42.2688Z" fill="white"/>
<path d="M46.417 25.676C45.8263 25.676 45.3477 26.1549 45.3477 26.7453V53.4659C45.3477 54.0564 45.8263 54.5352 46.417 54.5352C47.0076 54.5352 47.4863 54.0564 47.4863 53.4659V26.7453C47.4863 26.1549 47.0075 25.676 46.417 25.676Z" fill="white"/>
<path d="M70.9307 52.7427C68.3783 52.7427 67.0641 53.7725 65.9045 54.6812C64.847 55.5099 64.0117 56.1644 62.1975 56.1644C60.3833 56.1644 59.5478 55.5098 58.4904 54.6812C57.3308 53.7726 56.0166 52.7427 53.4642 52.7427C50.912 52.7427 49.5977 53.7726 48.4381 54.6812C47.3806 55.5099 46.5455 56.1644 44.7314 56.1644C42.9173 56.1644 42.082 55.5098 41.0247 54.6812C39.8652 53.7726 38.5509 52.7427 35.9987 52.7427C33.4467 52.7427 32.1325 53.7726 30.9731 54.6812C29.9156 55.5099 29.0805 56.1644 27.2666 56.1644C25.4526 56.1644 24.6174 55.5098 23.56 54.6812C22.4006 53.7726 21.0864 52.7427 18.5341 52.7427C15.9819 52.7427 14.6676 53.7726 13.5082 54.6812C12.4507 55.5099 11.6156 56.1644 9.80156 56.1644C7.9875 56.1644 7.15233 55.5098 6.09497 54.6812C4.93552 53.7726 3.62152 52.7427 1.06931 52.7427C0.478688 52.7427 0 53.2215 0 53.812C0 54.4025 0.478688 54.8813 1.06931 54.8813C2.88323 54.8813 3.71841 55.5359 4.77577 56.3645C5.93522 57.273 7.24922 58.303 9.80156 58.303C12.3536 58.303 13.6679 57.2732 14.8274 56.3645C15.8849 55.5358 16.72 54.8813 18.5341 54.8813C20.3482 54.8813 21.1835 55.5359 22.2408 56.3645C23.4003 57.273 24.7146 58.303 27.2666 58.303C29.8187 58.303 31.1328 57.273 32.2923 56.3645C33.3498 55.5358 34.1848 54.8813 35.9987 54.8813C37.8128 54.8813 38.6481 55.5359 39.7055 56.3645C40.8649 57.273 42.1791 58.303 44.7314 58.303C47.2836 58.303 48.5977 57.2732 49.7573 56.3645C50.8148 55.5358 51.65 54.8813 53.4642 54.8813C55.2784 54.8813 56.1139 55.5359 57.1712 56.3645C58.3308 57.273 59.6451 58.303 62.1975 58.303C64.7498 58.303 66.0641 57.2732 67.2237 56.3645C68.2812 55.5358 69.1165 54.8813 70.9307 54.8813C71.5213 54.8813 72 54.4025 72 53.812C72 53.2214 71.5213 52.7427 70.9307 52.7427Z" fill="white"/>
<path d="M70.9308 60.7388C68.3784 60.7388 67.0641 61.7686 65.9045 62.6773C64.847 63.5061 64.0117 64.1605 62.1975 64.1605C60.3833 64.1605 59.5479 63.5059 58.4905 62.6773C57.3309 61.7688 56.0166 60.7388 53.4643 60.7388C50.9121 60.7388 49.5978 61.7688 48.4382 62.6773C47.3807 63.5061 46.5455 64.1605 44.7315 64.1605C42.9174 64.1605 42.0821 63.5059 41.0247 62.6773C39.8653 61.7688 38.551 60.7388 35.9988 60.7388C33.4467 60.7388 32.1326 61.7688 30.9731 62.6773C29.9156 63.5061 29.0806 64.1605 27.2667 64.1605C25.4526 64.1605 24.6175 63.5059 23.5601 62.6773C22.4006 61.7688 21.0865 60.7388 18.5342 60.7388C17.9435 60.7388 17.4648 61.2177 17.4648 61.8081C17.4648 62.3986 17.9435 62.8775 18.5342 62.8775C20.3482 62.8775 21.1835 63.5321 22.2409 64.3606C23.4003 65.2692 24.7146 66.2991 27.2667 66.2991C29.8188 66.2991 31.1329 65.2692 32.2923 64.3606C33.3498 63.5319 34.1849 62.8775 35.9988 62.8775C37.8129 62.8775 38.6482 63.5321 39.7055 64.3606C40.865 65.2692 42.1791 66.2991 44.7315 66.2991C47.2837 66.2991 48.5978 65.2693 49.7574 64.3606C50.8149 63.5319 51.6501 62.8775 53.4643 62.8775C55.2785 62.8775 56.1139 63.5321 57.1713 64.3606C58.3309 65.2692 59.6452 66.2991 62.1975 66.2991C64.7499 66.2991 66.0641 65.2693 67.2237 64.3606C68.2812 63.5319 69.1166 62.8775 70.9308 62.8775C71.5214 62.8775 72.0001 62.3986 72.0001 61.8081C72.0001 61.2177 71.5214 60.7388 70.9308 60.7388Z" fill="white"/>
<path d="M15.009 62.8596C14.645 62.3949 13.9731 62.3133 13.5079 62.6775C12.4505 63.5062 11.6155 64.1605 9.80156 64.1605C7.9875 64.1605 7.15233 63.5059 6.09497 62.6774C4.93552 61.7688 3.62152 60.7387 1.06931 60.7387C0.478688 60.7387 0 61.2175 0 61.808C0 62.3985 0.478688 62.8773 1.06931 62.8773C2.88323 62.8773 3.71841 63.5319 4.77577 64.3605C5.93522 65.2691 7.24922 66.299 9.80156 66.299C12.3536 66.299 13.6678 65.2692 14.8272 64.3606C15.292 63.9966 15.3735 63.3245 15.009 62.8596Z" fill="white"/>
</g>
<defs>
<clipPath id="clip0">
<rect width="72" height="72" fill="white"/>
</clipPath>
</defs>
</svg>
