<svg width="71" height="71" viewBox="0 0 71 71" fill="none" xmlns="http://www.w3.org/2000/svg">
<g clip-path="url(#clip0)">
<path d="M68.7109 64.6128C64.8409 61.5861 56.3783 59.5622 46.9438 62.2702C46.3805 62.4324 45.7766 62.5542 45.1054 62.6407C40.2415 60.3567 32.4757 59.3073 23.9845 61.7431C21.0386 62.5886 17.7014 62.2997 14.4738 62.0206C12.4091 61.8418 10.3199 61.6616 8.37278 61.8056C9.94296 60.633 12.0623 59.4499 14.7062 58.5453C20.2224 56.6577 26.7849 56.4117 33.6825 57.8333C34.8917 58.0844 38.3027 58.5722 43.848 57.6804C48.7945 56.8796 63.7698 56.4378 69.7933 57.4131C70.3604 57.505 70.8945 57.1198 70.9863 56.5526C71.0781 55.9856 70.693 55.4516 70.126 55.3596C67.8257 54.9872 64.357 54.8103 60.6261 54.7762V51.8913H62.5935C64.6347 51.8913 66.2946 50.2286 66.2946 48.186C66.2946 46.1447 64.6347 44.4848 62.5935 44.4848H60.9641L68.0914 37.3542C68.7784 36.6698 69.1572 35.756 69.1581 34.7806C69.159 33.8034 68.7806 32.8865 68.0928 32.1985C67.4058 31.5115 66.4899 31.1332 65.5138 31.1332C64.5375 31.1332 63.6216 31.5115 62.9346 32.1985L50.6487 44.4847H46.1194C45.5453 44.4847 45.0794 44.9506 45.0794 45.5247C45.0794 46.0988 45.5453 46.5648 46.1194 46.5648H51.0798H58.4541H62.5936C63.4881 46.5648 64.2147 47.2914 64.2147 48.1859C64.2147 49.0817 63.4881 49.8111 62.5936 49.8111H17.9038C17.0066 49.8111 16.2786 49.0817 16.2786 48.1859C16.2786 47.2914 17.0066 46.5648 17.9038 46.5648H41.32C41.8941 46.5648 42.36 46.0988 42.36 45.5247C42.36 44.9506 41.8941 44.4847 41.32 44.4847H37.5356L40.0969 21.2502L49.5307 22.2917L49.3269 24.1318C49.2638 24.6965 49.6831 25.2161 50.2463 25.28C50.8101 25.344 51.3315 24.9232 51.3945 24.3606L51.5983 22.5191L62.1998 23.6881L61.9959 25.5269C61.9335 26.0982 62.344 26.6127 62.9153 26.6751C62.9542 26.6792 62.993 26.682 63.0304 26.682C63.5546 26.682 64.0039 26.2882 64.0635 25.7571L64.3825 22.8824C64.3839 22.8561 64.3839 22.6425 64.3686 22.5648C63.4575 17.5796 60.9656 12.8384 57.3504 9.21629C53.1556 5.01175 47.5727 2.41998 41.2063 1.7183C34.3032 0.955601 27.8799 2.54617 22.6339 6.31804C22.168 6.65363 22.0612 7.30261 22.3968 7.76994C22.7324 8.23588 23.3828 8.34265 23.8487 8.00707C27.7426 5.20728 32.3534 3.71795 37.347 3.61949C32.0303 7.22218 28.938 13.0256 28.0962 17.8361L16.5573 16.5659C17.553 14.5704 18.8718 12.6748 20.4193 11.0218C20.8118 10.603 20.791 9.94431 20.3708 9.55187C19.952 9.15943 19.2933 9.18023 18.9009 9.60041C16.8638 11.7762 15.19 14.3416 14.0598 17.0207C14.0169 17.1164 13.9877 17.2232 13.9766 17.3272L13.6577 20.2005C13.596 20.765 14.0133 21.2853 14.5771 21.3487C15.1407 21.4119 15.6636 20.9933 15.7253 20.4293L15.9291 18.5891L27.8341 19.901L27.6317 21.7439C27.5702 22.305 27.9897 22.8312 28.5524 22.8907C29.1166 22.9503 29.6374 22.5342 29.7006 21.9699L29.9017 20.1284L38.0293 21.0228L35.4431 44.4847H17.9038C15.8598 44.4847 14.1985 46.1446 14.1985 48.1859C14.1985 50.2285 15.8598 51.8912 17.9038 51.8912H18.7737V55.3718C17.1309 55.6579 15.5459 56.0592 14.0328 56.5769C8.09002 58.6102 5.23089 61.641 4.29693 62.8185C2.47728 63.725 0.986974 65.334 0.0546828 68.0937C-0.0525105 68.4111 -0.000231252 68.7609 0.195019 69.033C0.390269 69.305 0.704915 69.4666 1.03995 69.4666H69.9558C70.5157 69.4666 70.9751 69.0235 70.9952 68.4641C71.0428 67.1506 70.2527 65.8187 68.7109 64.6128ZM64.4058 33.6698C64.6998 33.3757 65.0933 33.2137 65.5139 33.2137C65.9344 33.2137 66.3279 33.3757 66.6219 33.6698C66.9164 33.9644 67.0784 34.3582 67.078 34.7791C67.0776 35.198 66.9162 35.5893 66.6218 35.8825L58.0231 44.4853H53.5906L64.4058 33.6698ZM55.1152 51.8919H58.5462V54.7721C57.4029 54.7772 56.2512 54.7944 55.1152 54.8221V51.8919ZM36.7202 51.8917H53.0351V54.8855C49.0917 55.0299 45.5459 55.2986 43.5167 55.627C40.3081 56.143 37.8957 56.1736 36.2596 56.0678L36.7202 51.8917ZM26.1723 51.8917H34.6277L34.1949 55.8147C34.1635 55.8085 34.1327 55.8024 34.104 55.7964C31.4026 55.2397 28.7459 54.9279 26.1723 54.8585V51.8917ZM62.0277 21.5767L51.8173 20.4506C52.0322 15.6637 50.3404 9.47754 46.1137 4.8362C55.438 7.70545 60.3983 15.0537 62.0277 21.5767ZM30.168 18.0656C31.1304 12.8377 35.0742 6.57112 41.2548 3.81987C41.5099 3.85038 41.7623 3.88366 42.0133 3.91971C47.4479 7.94536 49.937 14.9108 49.7457 20.2234L30.168 18.0656ZM20.8538 51.8919H24.0921V54.856C22.9938 54.8833 21.9134 54.9568 20.8538 55.0756V51.8919ZM2.59862 67.3872C4.60673 63.4814 8.46735 63.589 14.2946 64.0932C17.7107 64.3887 21.2429 64.6943 24.5583 63.7429C29.0575 62.4521 33.6983 62.1016 37.9798 62.7285C41.5029 63.2445 44.6445 64.4178 46.5992 65.9475C47.2152 66.4297 47.6782 66.9232 47.96 67.3873H2.59862V67.3872ZM50.2191 67.3872C49.9185 66.3316 49.1268 65.2841 47.8809 64.3092C47.8373 64.275 47.7897 64.2417 47.7449 64.2076C47.7446 64.2069 47.7445 64.2062 47.7444 64.2054C51.7416 63.0903 55.8542 62.7947 59.6531 63.3506C62.8332 63.8161 65.6677 64.8734 67.4295 66.2512C67.9102 66.627 68.2897 67.0168 68.5451 67.3869H50.2191V67.3872Z" fill="white"/>
</g>
<defs>
<clipPath id="clip0">
<rect width="71" height="71" fill="white"/>
</clipPath>
</defs>
</svg>
