<svg width="67" height="87" viewBox="0 0 67 87" fill="none" xmlns="http://www.w3.org/2000/svg">
<path d="M65.6387 56.4227L65.6385 56.4228L65.9925 56.7764C66.3067 57.0902 66.5 57.5222 66.5 58V84.7692C66.5 85.7245 65.7244 86.5 64.7667 86.5H2.23333C1.27559 86.5 0.5 85.7245 0.5 84.7692V29.5H0.505267L0.505384 29.0001C0.505491 28.5465 0.678348 28.1049 1.00737 27.7763L9.94059 18.8533C10.2659 18.5286 10.7067 18.3462 11.1667 18.3462H17.8667H18.3667V17.8462V13.3846C18.3667 12.9258 18.5491 12.4858 18.874 12.1609C18.8741 12.1608 18.8741 12.1608 18.8742 12.1608L30.0406 1.00714C30.3792 0.669103 30.8221 0.500136 31.2667 0.500136H31.7667V0.5H49.1333C49.5933 0.5 50.0341 0.682446 50.3594 1.00714L61.1708 11.8061L61.1706 11.8062L61.5258 12.161C61.84 12.4748 62.0333 12.9068 62.0333 13.3846V52.6142V52.8215L62.18 52.968L65.6387 56.4227ZM44.1667 42.3846V42.8846H44.6667H51.3667C51.8266 42.8846 52.2675 43.0671 52.5927 43.3918L57.7133 48.5065L58.5667 49.3588V48.1527V15.6154V15.1154H58.0667H44.6667H44.1667V15.6154V29V31.2308V42.3846ZM40.7 29.9239V29.7167L40.5534 29.5702L33.8534 22.8779L33.5 22.5249L33.1466 22.8779L26.4466 29.5702L26.3 29.7167V29.9239V42.3846V42.8846H26.8H40.2H40.7V42.3846V31.2308V29.9239ZM54.9082 11.6538H56.1163L55.2615 10.8001L48.5617 4.10779L48.4153 3.96154H48.2083H36.6586H35.4505L36.3053 4.81529L43.0053 11.5076L43.1517 11.6538H43.3586H54.9082ZM21.98 13.9548L21.8333 14.1013V14.3086V17.8462V18.3462H22.3333H33V18.3463H33.5C33.9446 18.3463 34.3874 18.5153 34.7261 18.8533L39.8466 23.968L40.7 24.8204V23.6142V14.3088V14.1016L40.5534 13.9551L31.62 5.03174L31.2667 4.67878L30.9133 5.03173L21.98 13.9548ZM12.0917 21.8077H11.8847L11.7383 21.9539L7.27166 26.4155L6.41692 27.2692H7.62501H23.6414H23.8483L23.9947 27.123L28.4614 22.6614L29.3161 21.8077H28.108H12.0917ZM4.46667 30.7308H3.96667V31.2308V82.5385V83.0385H4.46667H8.93333H9.43333V82.5385V58C9.43333 57.5411 9.61577 57.101 9.94082 56.7761L22.6867 44.0449L22.8333 43.8984V43.6912V31.2308V30.7308H22.3333H4.46667ZM26.8 83.0385H27.3V82.5385V62.4615C27.3 60.9548 26.0737 59.7308 24.5667 59.7308C23.0596 59.7308 21.8333 60.9548 21.8333 62.4615V82.5385V83.0385H22.3333H26.8ZM35.7333 83.0385H36.2333V82.5385V58.9239V58.7167L36.0867 58.5702L24.92 47.4163L24.5667 47.0634L24.2133 47.4163L13.0466 58.5702L12.9 58.7167V58.9239V82.5385V83.0385H13.4H17.8667H18.3667V82.5385V62.4615C18.3667 59.0481 21.1479 56.2692 24.5667 56.2692C27.9854 56.2692 30.7667 59.0481 30.7667 62.4615V82.5385V83.0385H31.2667H35.7333ZM29.9585 46.3462H28.7505L29.6052 47.1999L38.5383 56.123L38.6847 56.2692H38.8917H59.3748H60.5829L59.7281 55.4155L50.795 46.4924L50.6486 46.3462H50.4417H42.4333H29.9585ZM62.5333 83.0385H63.0333V82.5385V60.2308V59.7308H62.5333H40.2H39.7V60.2308V82.5385V83.0385H40.2H62.5333Z" fill="white" stroke="#EDCA4A"/>
</svg>
