<svg width="90" height="90" viewBox="0 0 90 90" fill="none" xmlns="http://www.w3.org/2000/svg">
<path d="M60.5065 48.6484L52.8456 45.2435C52.3043 45.003 51.9549 44.465 51.9549 43.8729V41.7692C54.5283 39.7187 56.1824 36.5611 56.1824 33.0227V30.0613C57.0302 29.5928 57.5915 28.6875 57.5915 27.6736V27.3862C57.5915 21.2205 52.5752 16.2042 46.4095 16.2042H43.5914C37.4257 16.2042 32.4094 21.2205 32.4094 27.3862V29.9939C32.4094 30.8852 32.7929 31.6925 33.4614 32.2091C33.5748 32.2967 33.6942 32.3737 33.8185 32.4403V33.0225C33.8185 36.561 35.4724 39.7185 38.0457 41.7688V43.8728C38.0457 44.4648 37.696 45.0029 37.155 45.2433L29.4941 48.6482C26.9851 49.7632 25.3639 52.2579 25.3639 55.0034V72.4768C25.3639 73.2049 25.9542 73.7952 26.6823 73.7952C27.4103 73.7952 28.0006 73.2049 28.0006 72.4768V55.0036C28.0006 54.8509 28.0115 54.6999 28.0273 54.5501L31.5574 58.0801C32.1067 58.6296 32.4094 59.36 32.4094 60.1371V72.477C32.4094 73.2051 32.9997 73.7954 33.7278 73.7954C34.4558 73.7954 35.0461 73.2051 35.0461 72.477V60.1371C35.0461 58.6558 34.4694 57.2633 33.4219 56.2158L29.2135 52.0072C29.5927 51.6138 30.0476 51.2878 30.5651 51.0577L38.0968 47.7103L43.6823 53.2957V72.4768C43.6823 73.2049 44.2725 73.7952 45.0006 73.7952C45.7287 73.7952 46.319 73.2049 46.319 72.4768V53.2959L51.9044 47.7104L59.436 51.0577C59.9535 51.2878 60.4084 51.6138 60.7876 52.0074L56.5792 56.2158C55.5317 57.2633 54.955 58.6558 54.955 60.1371V72.477C54.955 73.2051 55.5452 73.7954 56.2733 73.7954C57.0014 73.7954 57.5917 73.2051 57.5917 72.477V60.1371C57.5917 59.3602 57.8942 58.6296 58.4437 58.0801L61.9736 54.5503C61.9894 54.7 62.0003 54.8507 62.0003 55.0034V72.4768C62.0003 73.2049 62.5906 73.7952 63.3186 73.7952C64.0467 73.7952 64.637 73.2049 64.637 72.4768V55.0036C64.6365 52.2581 63.0154 49.7634 60.5065 48.6484ZM45.0001 50.8854L40.0991 45.9843C40.4718 45.3572 40.6822 44.6318 40.6822 43.8729V43.3365C42.0116 43.8951 43.4704 44.2046 45.0003 44.2046C46.5301 44.2046 47.9887 43.8953 49.318 43.3366V43.8729C49.318 44.632 49.5284 45.3573 49.9012 45.9844L45.0001 50.8854ZM45.0003 41.5677C40.2884 41.5679 36.455 37.7345 36.455 33.0227V32.4297C37.2777 32.1037 38.0806 31.5848 38.8493 30.8755C39.3842 30.3817 39.4178 29.5476 38.9239 29.0125C38.4301 28.4776 37.5962 28.4441 37.0609 28.9378C36.4016 29.5466 35.7427 29.9398 35.1032 30.1068C35.0878 30.1108 35.0763 30.1126 35.0683 30.1133C35.0588 30.0948 35.0459 30.0562 35.0459 29.9941V27.3864C35.0459 22.6746 38.8794 18.8411 43.5912 18.8411H46.4093C51.1213 18.8411 54.9546 22.6746 54.9546 27.3864V27.6738C54.9546 27.7165 54.9289 27.7536 54.8952 27.7603C47.0007 29.3195 43.041 26.3809 41.7051 25.045C41.1902 24.5301 40.3554 24.5301 39.8407 25.045C39.3259 25.5598 39.3259 26.3946 39.8407 26.9093C43.9347 31.0033 49.9086 31.0771 53.5455 30.6401V33.0225C53.5455 37.7343 49.7121 41.5677 45.0003 41.5677Z" fill="white"/>
<path d="M23.7731 41.4776V38.6589C23.7731 35.2196 21.9857 32.1919 19.2926 30.4496C19.4588 29.9161 19.5457 29.3573 19.5457 28.7953C19.5457 25.7374 17.058 23.2498 14.0001 23.2498C10.9422 23.2498 8.45457 25.7376 8.45457 28.7953C8.45457 29.3643 8.5407 29.9177 8.70734 30.4499C6.01437 32.1921 4.2272 35.2198 4.2272 38.6589V41.4771C4.2272 44.8076 5.90292 47.7527 8.45439 49.5179V52.417C8.45439 52.9888 8.13675 53.5028 7.62541 53.7586L3.06545 56.0385C1.17457 56.9842 0 58.8847 0 60.9989V72.4772C0 73.2053 0.590275 73.7956 1.31836 73.7956C2.04645 73.7956 2.63672 73.2053 2.63672 72.4772V61.5691L4.78442 63.7168C5.33374 64.2663 5.63644 64.9967 5.63644 65.7738V72.4772C5.63644 73.2053 6.22671 73.7956 6.9548 73.7956C7.68289 73.7956 8.27316 73.2053 8.27316 72.4772V65.7738C8.27316 64.2925 7.69625 62.8999 6.64894 61.8525L3.65977 58.8633C3.64536 58.8489 3.62989 58.8364 3.61512 58.8229C3.80268 58.6573 4.01309 58.5131 4.24477 58.3971L8.80472 56.1172C9.03834 56.0003 9.25578 55.8623 9.45846 55.7091L12.6818 58.9325V72.4774C12.6818 73.2055 13.272 73.7958 14.0001 73.7958C14.7282 73.7958 15.3185 73.2055 15.3185 72.4774V58.9324L18.542 55.7089C18.7448 55.8623 18.9621 56.0003 19.1957 56.1171L20.4531 56.7458C20.6424 56.8406 20.8435 56.8854 21.0418 56.8854C21.5253 56.8854 21.991 56.6182 22.222 56.1564C22.5477 55.5052 22.2837 54.7133 21.6324 54.3877L20.375 53.7589C19.8635 53.5032 19.5459 52.9892 19.5459 52.4175V49.5184C22.0973 47.7532 23.7731 44.808 23.7731 41.4776ZM14.0001 25.8865C15.6041 25.8865 16.909 27.1915 16.909 28.7953C16.909 28.972 16.8931 29.1451 16.8629 29.3147C15.9569 29.0367 14.9959 28.886 14.0001 28.886C13.0057 28.886 12.046 29.0361 11.1414 29.3135C11.111 29.1439 11.0913 28.9716 11.0913 28.7953C11.0913 27.1913 12.3961 25.8865 14.0001 25.8865ZM14.0001 31.5229C17.935 31.5229 21.1363 34.7243 21.1363 38.6591V39.1369C15.6475 40.8174 12.3764 36.642 12.2367 36.459C12.0073 36.1534 11.6566 35.9621 11.2755 35.935C10.8944 35.9083 10.52 36.0477 10.2498 36.3179C8.9914 37.5763 7.75882 38.1833 6.86867 38.4763C6.96622 34.6256 10.1266 31.5229 14.0001 31.5229ZM14.0001 56.5217L10.9537 53.4752C11.0426 53.1353 11.0913 52.7809 11.0913 52.4172V50.8079C12.0105 51.0951 12.9876 51.25 14.0001 51.25C15.0126 51.25 15.9898 51.0951 16.909 50.8079V52.4172C16.909 52.7809 16.9576 53.1354 17.0466 53.4752L14.0001 56.5217ZM14.0001 48.6133C10.0653 48.6133 6.86392 45.4119 6.86392 41.4771V41.2039C7.91527 40.9624 9.4741 40.4011 11.1003 39.0933C11.6756 39.6361 12.4979 40.302 13.545 40.8731C14.7836 41.5486 16.4941 42.1735 18.5835 42.1735C19.3775 42.1735 20.227 42.0812 21.1251 41.8692C20.9206 45.6225 17.8033 48.6133 14.0001 48.6133Z" fill="white"/>
<path d="M86.9347 53.2205L79.5566 49.5314C79.0452 49.2756 78.7276 48.7616 78.7276 48.19V46.3216C80.4547 44.7883 81.5457 42.5537 81.5457 40.0682V38.5675C81.5761 38.5675 81.606 38.5684 81.6364 38.5684C82.3645 38.5684 82.9548 37.9781 82.9548 37.25V34.4319C82.9548 29.8201 79.2027 26.0681 74.5909 26.0681H71.7728C67.161 26.0681 63.4089 29.8201 63.4089 34.4319V37.25C63.4089 37.9781 63.9992 38.5684 64.7273 38.5684C64.7382 38.5684 64.7698 38.5681 64.818 38.5661V40.0682C64.818 42.5539 65.9092 44.7884 67.6363 46.3218V48.1902C67.6363 48.762 67.3187 49.276 66.8071 49.5315C66.1559 49.8571 65.8918 50.649 66.2176 51.3003C66.4485 51.7622 66.9142 52.0294 67.3978 52.0294C67.5959 52.0294 67.797 51.9846 67.9863 51.89C68.2199 51.7731 68.4373 51.6351 68.64 51.4818L71.8635 54.7053V72.4774C71.8635 73.2055 72.4538 73.7957 73.1819 73.7957C73.9099 73.7957 74.5002 73.2055 74.5002 72.4774V54.705L77.7235 51.4815C77.9264 51.635 78.1436 51.7729 78.3773 51.8897L85.5166 55.4594L83.3512 57.6249C82.3039 58.6724 81.727 60.0649 81.727 61.5462V72.477C81.727 73.2051 82.3172 73.7954 83.0453 73.7954C83.7734 73.7954 84.3637 73.2051 84.3637 72.477V61.5462C84.3637 60.7693 84.6662 60.0387 85.2157 59.4892L87.2669 57.438C87.3291 57.6766 87.3632 57.9253 87.3632 58.1805V72.477C87.3632 73.2051 87.9535 73.7954 88.6816 73.7954C89.4097 73.7954 89.9999 73.2051 89.9999 72.477V58.1805C90.0001 56.0666 88.8255 54.166 86.9347 53.2205ZM66.0455 35.6605V34.4317H66.0457C66.0457 31.2738 68.6149 28.7046 71.7728 28.7046H74.5909C77.7488 28.7046 80.3181 31.2738 80.3181 34.4317V35.8962C74.5871 35.587 71.1286 33.3568 71.095 33.3349C70.8719 33.1862 70.6174 33.1134 70.3641 33.1134C70.0238 33.1134 69.6863 33.2449 69.4314 33.4996C68.17 34.761 66.9341 35.3681 66.0455 35.6605ZM73.1819 52.2945L70.1354 49.248C70.2243 48.9081 70.273 48.5537 70.273 48.19V47.9093C71.1794 48.2466 72.1593 48.4319 73.1819 48.4319C74.2044 48.4319 75.1844 48.2466 76.0907 47.9093V48.19C76.0907 48.5537 76.1392 48.9081 76.2283 49.248L73.1819 52.2945ZM73.1819 45.7953C70.0239 45.7953 67.4547 43.2263 67.4547 40.0682V37.9428C68.3781 37.5738 69.4539 36.9873 70.5487 36.0546C71.9331 36.7749 74.8296 38.02 78.909 38.4313V40.0682C78.909 43.2261 76.3398 45.7953 73.1819 45.7953Z" fill="white"/>
</svg>
