<svg width="62" height="70" viewBox="0 0 62 70" fill="none" xmlns="http://www.w3.org/2000/svg">
<path d="M44.1633 46.0644V58.353C44.1633 58.9772 44.6693 59.4832 45.2935 59.4832C45.9176 59.4832 46.4237 58.9772 46.4237 58.353V45.2475C46.4237 44.7474 46.095 44.3066 45.6156 44.1642C43.0563 43.4029 40.7538 41.8049 39.1324 39.6639C37.4575 37.4526 36.5722 34.8129 36.5722 32.0307C36.5722 25.0511 42.2505 19.3728 49.2301 19.3728C50.534 19.3728 51.8102 19.5713 53.0216 19.9506C52.6805 21.2522 52.1448 22.4853 51.4419 23.6129C50.7955 23.3073 50.0738 23.1355 49.3127 23.1355C46.5563 23.1355 44.3137 25.378 44.3137 28.1345C44.3137 30.8909 46.5561 33.1334 49.3127 33.1334C52.0692 33.1334 54.3116 30.8909 54.3116 28.1345C54.3116 26.96 53.9035 25.8797 53.223 25.0255C54.0573 23.7349 54.6998 22.3206 55.1239 20.8255C56.601 21.6032 57.9279 22.6758 59.0195 24.0057C59.4155 24.4882 60.1277 24.5581 60.6102 24.1621C61.0926 23.7661 61.1627 23.054 60.7667 22.5714C59.3378 20.8308 57.5673 19.4627 55.5913 18.5315C55.6728 17.8862 55.717 17.2315 55.717 16.5692C55.717 7.98444 48.7326 1 40.1476 1C31.5625 1 24.5782 7.98444 24.5782 16.5693C24.5782 18.9058 25.1086 21.2226 26.114 23.3148C22.9599 27.9924 22.6807 34.1653 25.553 39.1287L15.183 49.4987C14.7416 49.9403 14.7416 50.6557 15.183 51.0972C15.6244 51.5385 16.34 51.5385 16.7814 51.0972L27.785 40.0936C28.1658 39.7128 28.225 39.1162 27.9265 38.668C24.6009 33.6733 25.272 26.9634 29.522 22.7135C32.6533 19.5823 37.1803 18.3597 41.3863 19.3468C39.8962 20.2715 38.5799 21.4506 37.4996 22.8239C35.4918 23.044 33.6201 23.9365 32.1826 25.374C28.7143 28.8423 28.7143 34.4855 32.1826 37.954C33.4809 39.2522 35.1001 40.0951 36.8913 40.4145C37.0328 40.6219 37.1778 40.8275 37.3304 41.029C38.2371 42.226 39.3261 43.2774 40.5414 44.1495C37.4059 44.6679 34.1513 43.9967 31.4673 42.2094C31.019 41.9111 30.4224 41.97 30.0418 42.3508L19.684 52.7085C19.2426 53.1499 19.2426 53.8655 19.684 54.3069L22.1323 56.7552C22.7514 57.3493 22.7514 58.4181 22.1321 59.0121C21.5381 59.6311 20.4691 59.6313 19.8752 59.012L17.427 56.5638C16.9856 56.1225 16.27 56.1225 15.8286 56.5638L12.8966 59.4958C12.4588 59.9167 12.4588 60.6732 12.8966 61.0943L15.3447 63.5422C15.967 64.1645 15.967 65.1771 15.3448 65.7993C14.7225 66.4217 13.7101 66.4214 13.0879 65.7993L10.6397 63.3509C10.1983 62.9097 9.48275 62.9097 9.04135 63.3509L5.83457 66.5577C5.21225 67.18 4.19982 67.1798 3.57766 66.5578C2.95534 65.9355 2.95534 64.9229 3.57766 64.3008L13.5847 54.2938C14.026 53.8522 14.026 53.1368 13.5847 52.6953C13.1433 52.254 12.4277 52.254 11.9863 52.6953L1.97915 62.7024C0.475699 64.2059 0.475699 66.6524 1.97915 68.1562C3.48276 69.6595 5.92916 69.6595 7.43277 68.1562L9.84037 65.7486L11.4896 67.3978C12.993 68.9011 15.4396 68.9012 16.9432 67.3976C18.4466 65.8942 18.4466 63.4476 16.9432 61.9438L15.2941 60.295L16.6278 58.9613L18.2768 60.6102C19.7123 62.1064 22.2951 62.1063 23.7306 60.6103C25.2265 59.175 25.2267 56.5919 23.7306 55.1567L22.0816 53.5075L31.0067 44.5825C34.7446 46.7448 39.2736 47.1789 43.3785 45.7514C43.6374 45.8626 43.8984 45.9684 44.1633 46.0644ZM49.3127 25.3959C49.5593 25.3959 49.7974 25.4317 50.0249 25.4931C49.0484 26.5742 47.8886 27.5005 46.5786 28.2231C46.5777 28.1933 46.574 28.1643 46.574 28.1344C46.574 26.6245 47.8026 25.3959 49.3127 25.3959ZM52.0513 28.1347C52.0513 29.6446 50.8227 30.8731 49.3127 30.8731C48.6551 30.8731 48.0512 30.6399 47.5787 30.2522C49.1791 29.3834 50.5919 28.2568 51.7706 26.9346C51.9484 27.2975 52.0513 27.7038 52.0513 28.1347ZM27.9236 21.115C27.8531 21.1856 27.7862 21.2585 27.7173 21.3303C27.14 19.8185 26.8384 18.1997 26.8384 16.5695C26.8384 9.23088 32.8088 3.26052 40.1474 3.26052C47.486 3.26052 53.4564 9.23088 53.4564 16.5695C53.4564 16.9515 53.4383 17.3303 53.4063 17.7061C52.066 17.3166 50.6623 17.1126 49.2298 17.1126C47.5132 17.1126 45.8639 17.4049 44.3277 17.9409C38.7608 15.5677 32.2248 16.8137 27.9236 21.115ZM35.7688 25.6041C35.2988 26.5843 34.9331 27.6235 34.6855 28.7072C34.1235 28.454 33.5789 28.1636 33.0562 27.8336C33.27 27.5315 33.5104 27.2426 33.7808 26.9722C34.3605 26.3924 35.035 25.9315 35.7688 25.6041ZM33.7809 36.3553C32.032 34.6064 31.4672 32.1163 32.0832 29.8869C32.8062 30.3257 33.5625 30.704 34.347 31.0189C34.3244 31.3533 34.3119 31.6907 34.3119 32.0309C34.3119 33.9411 34.6687 35.7936 35.3549 37.5236C34.7819 37.2186 34.253 36.8274 33.7809 36.3553Z" fill="white" stroke="white" stroke-width="0.4"/>
</svg>
