<svg width="38" height="38" viewBox="0 0 38 38" fill="none" xmlns="http://www.w3.org/2000/svg">
<path d="M19.0001 0.666672C8.88008 0.666672 0.666748 8.88 0.666748 19C0.666748 29.12 8.88008 37.3333 19.0001 37.3333C29.1201 37.3333 37.3334 29.12 37.3334 19C37.3334 8.88 29.1201 0.666672 19.0001 0.666672ZM30.0001 22.6117H20.8334L24.9767 18.4683C24.1272 17.4692 23.0709 16.6665 21.8807 16.1158C20.6905 15.565 19.3949 15.2793 18.0834 15.2783C13.7384 15.2783 10.1084 18.3217 9.17341 22.3917L7.41341 21.805C8.58675 17.0017 12.9134 13.445 18.0834 13.445C21.3467 13.445 24.2617 14.8933 26.2784 17.1667L30.0001 13.445V22.6117Z" fill="#232323"/>
</svg>
