<svg width="32" height="32" viewBox="0 0 32 32" fill="none" xmlns="http://www.w3.org/2000/svg">
<g clip-path="url(#clip0)">
<path fill-rule="evenodd" clip-rule="evenodd" d="M30.9333 32C31.2162 32 31.4875 31.8876 31.6876 31.6876C31.8876 31.4875 32 31.2162 32 30.9333L32 1.06666C32 0.783764 31.8876 0.512453 31.6876 0.312414C31.4875 0.112375 31.2162 -3.74618e-06 30.9333 -3.72145e-06L22.4 -2.97544e-06C22.1171 -2.95071e-06 21.8458 0.112376 21.6458 0.312415C21.4457 0.512454 21.3333 0.783765 21.3333 1.06666L21.3333 21.3333L1.06667 21.3333C0.783771 21.3333 0.512458 21.4457 0.312419 21.6458C0.11238 21.8458 1.04336e-06 22.1171 1.06809e-06 22.4L1.8141e-06 30.9333C1.83883e-06 31.2162 0.112381 31.4875 0.31242 31.6876C0.512459 31.8876 0.783772 32 1.06667 32L30.9333 32ZM29.8667 23.3067L29.8667 29.8667L23.3067 29.8667L23.3067 23.3067L29.8667 23.3067ZM29.8667 21.4933L29.8667 2.13333L23.4667 2.13333L23.4667 4.42666L26.1333 4.42666C26.3738 4.42666 26.6044 4.52219 26.7744 4.69222C26.9445 4.86225 27.04 5.09287 27.04 5.33333C27.04 5.57379 26.9445 5.80441 26.7744 5.97444C26.6044 6.14447 26.3738 6.24 26.1333 6.24L23.4667 6.24L23.4667 8.69333L27.2 8.69333C27.4405 8.69333 27.6711 8.78885 27.8411 8.95889C28.0111 9.12892 28.1067 9.35953 28.1067 9.6C28.1067 9.84046 28.0111 10.0711 27.8411 10.2411C27.6711 10.4111 27.4405 10.5067 27.2 10.5067L23.4667 10.5067L23.4667 12.96L26.1333 12.96C26.3738 12.96 26.6044 13.0555 26.7744 13.2256C26.9445 13.3956 27.04 13.6262 27.04 13.8667C27.04 14.1071 26.9445 14.3377 26.7744 14.5078C26.6044 14.6778 26.3738 14.7733 26.1333 14.7733L23.4667 14.7733L23.4667 17.2267L26.1333 17.2267C26.3738 17.2267 26.6044 17.3222 26.7744 17.4922C26.9445 17.6623 27.04 17.8929 27.04 18.1333C27.04 18.3738 26.9445 18.6044 26.7744 18.7744C26.6044 18.9445 26.3738 19.04 26.1333 19.04L23.4667 19.04L23.4667 21.4933L29.8667 21.4933ZM21.4933 23.4667L19.04 23.4667L19.04 26.1333C19.04 26.3738 18.9445 26.6044 18.7744 26.7744C18.6044 26.9445 18.3738 27.04 18.1333 27.04C17.8929 27.04 17.6623 26.9445 17.4922 26.7744C17.3222 26.6044 17.2267 26.3738 17.2267 26.1333L17.2267 23.4667L14.7733 23.4667L14.7733 26.1333C14.7733 26.3738 14.6778 26.6044 14.5078 26.7744C14.3377 26.9445 14.1071 27.04 13.8667 27.04C13.6262 27.04 13.3956 26.9445 13.2256 26.7744C13.0555 26.6044 12.96 26.3738 12.96 26.1333L12.96 23.4667L10.5067 23.4667L10.5067 27.2C10.5067 27.4405 10.4111 27.6711 10.2411 27.8411C10.0711 28.0111 9.84046 28.1067 9.6 28.1067C9.35954 28.1067 9.12892 28.0111 8.95889 27.8411C8.78886 27.6711 8.69333 27.4405 8.69333 27.2L8.69333 23.4667L6.24 23.4667L6.24 26.1333C6.24 26.3738 6.14448 26.6044 5.97444 26.7744C5.80441 26.9445 5.5738 27.04 5.33334 27.04C5.09287 27.04 4.86226 26.9445 4.69223 26.7744C4.52219 26.6044 4.42667 26.3738 4.42667 26.1333L4.42667 23.4667L2.13333 23.4667L2.13333 29.8667L21.4933 29.8667L21.4933 23.4667Z" fill="#EDCA4A"/>
</g>
<defs>
<clipPath id="clip0">
<rect width="32" height="32" fill="white" transform="translate(32 32) rotate(180)"/>
</clipPath>
</defs>
</svg>
