<svg width="32" height="36" viewBox="0 0 32 36" fill="none" xmlns="http://www.w3.org/2000/svg">
<path d="M12.6667 14.6666V17.9999H9.33333V14.6666H12.6667ZM22.6667 17.9999V14.6666H19.3333V17.9999H22.6667ZM31 21.3333V34.6666H1V21.3333H2.66667V14.6666C2.66667 7.29992 8.63333 1.33325 16 1.33325C23.3667 1.33325 29.3333 7.29992 29.3333 14.6666V21.3333H31ZM7.66667 24.6666H4.33333V31.3333H7.66667V24.6666ZM14.3333 24.6666H11V31.3333H14.3333V24.6666ZM14.3333 4.79992C9.6 5.59992 6 9.71659 6 14.6666V21.3333H14.3333V4.79992ZM17.6667 21.3333H26V14.6666C26 9.71659 22.4 5.59992 17.6667 4.79992V21.3333ZM21 24.6666H17.6667V31.3333H21V24.6666ZM27.6667 24.6666H24.3333V31.3333H27.6667V24.6666Z" fill="#EDCA4A" stroke="white"/>
</svg>
