<svg width="32" height="32" viewBox="0 0 32 32" fill="none" xmlns="http://www.w3.org/2000/svg">
<path d="M12.8333 30.25H19.1667M27.0833 30.25V4.91667C27.0833 4.07681 26.7497 3.27136 26.1558 2.6775C25.562 2.08363 24.7565 1.75 23.9167 1.75H8.08333C7.24348 1.75 6.43803 2.08363 5.84416 2.6775C5.2503 3.27136 4.91667 4.07681 4.91667 4.91667V30.25H27.0833ZM27.0833 30.25H30.25H27.0833ZM27.0833 30.25H19.1667H27.0833ZM4.91667 30.25H1.75H4.91667ZM4.91667 30.25H12.8333H4.91667ZM11.25 8.08333H12.8333H11.25ZM11.25 14.4167H12.8333H11.25ZM19.1667 8.08333H20.75H19.1667ZM19.1667 14.4167H20.75H19.1667ZM12.8333 30.25V22.3333C12.8333 21.9134 13.0001 21.5107 13.2971 21.2137C13.594 20.9168 13.9967 20.75 14.4167 20.75H17.5833C18.0033 20.75 18.406 20.9168 18.7029 21.2137C18.9999 21.5107 19.1667 21.9134 19.1667 22.3333V30.25H12.8333Z" stroke="#EDCA4A" stroke-width="2.4" stroke-linecap="round" stroke-linejoin="round"/>
</svg>
