<svg width="178" height="71" viewBox="0 0 178 71" fill="none" xmlns="http://www.w3.org/2000/svg">
<path d="M69.0027 53.6081L66.8432 55.1427C63.4496 55.7053 65.8148 56.4215 63.9638 58.0584C63.6553 58.3141 63.1925 58.4676 62.7812 58.5188C61.9071 58.5699 61.033 58.5699 60.1589 58.5699C58.6678 58.6211 58.3592 59.0303 59.0791 60.9741C56.7139 60.616 54.5029 60.4626 52.4462 59.951C49.8239 59.286 48.9498 59.6953 48.7441 62.3552C43.7052 63.4294 40.2088 61.3833 38.1006 56.7284C37.7921 56.8307 37.8435 56.7796 37.535 56.8819C37.895 61.5368 38.2035 66.2428 38.5634 71H35.5297C35.8897 66.2428 36.2496 61.5879 36.6095 56.6261C34.9127 58.4676 33.7301 60.5137 31.9305 61.5368C30.0795 62.5598 27.6628 62.5087 25.4519 62.9179C25.0405 59.593 24.2692 59.286 21.4413 60.0533C19.4874 60.5649 17.3793 60.6672 15.1683 60.9741C15.6311 59.0303 15.3225 58.6722 13.78 58.6211C12.9573 58.6211 12.1346 58.6211 11.312 58.5699C10.952 58.5699 10.2836 58.4676 10.2322 58.263C9.82084 56.1146 10.5407 55.8077 8.2783 55.1427L5.91309 53.6081C26.326 48.2371 47.8186 48.1859 68.2829 53.4546L69.0027 53.6081Z" fill="#666666"/>
<path d="M57.845 26.446C58.2564 27.3667 58.5649 28.134 58.9762 29.1059C61.0329 27.5713 62.884 26.139 65.095 24.451C65.1464 26.6506 65.9691 26.139 66.8432 25.6275C67.563 25.2183 68.1286 24.1441 69.2084 25.1671C69.3112 25.2694 69.9796 24.8602 70.391 24.7068C71.8821 23.9906 73.3218 23.2745 75.07 22.8141C74.3502 24.0418 73.5789 25.2183 72.9105 26.4971C72.4991 27.2644 71.6764 27.9805 72.3963 29.1571C72.602 29.5151 71.8821 30.5382 71.5222 31.152C70.5452 32.7889 70.5967 33.0447 72.6534 33.7097C71.7793 34.6304 71.008 35.5512 70.1339 36.3696C67.8715 38.518 67.9744 39.3876 70.7509 40.7176C71.0594 40.871 71.3165 40.9733 72.0364 41.2803C71.4708 41.6895 71.1108 41.9964 70.6995 42.201C67.6658 43.889 63.5524 46.4467 60.1588 47.7255C57.9479 48.5439 57.228 48.3393 55.4798 48.1347C42.8825 46.6001 30.2851 46.6513 17.6877 48.4928C16.9165 48.5951 15.9909 48.1859 15.1683 47.9301C14.4484 47.6744 13.7286 47.3674 13.0601 47.0605C11.7233 46.3955 10.4378 45.6794 9.10095 44.9633C8.68961 44.7586 8.22685 44.554 7.81551 44.2983C6.22155 43.4287 4.6276 42.5079 2.67372 41.4337C3.70208 40.9222 4.3191 40.6664 4.88469 40.3595C6.6329 39.4388 6.78715 38.5692 5.45029 37.0857C4.93611 36.5231 4.3191 36.0115 3.80492 35.5C3.29074 34.9885 2.82798 34.4769 2.36522 33.9143C2.93081 33.505 3.7535 33.1981 3.90775 32.7378C4.06201 32.2774 3.44499 31.6124 3.1879 31.0497C2.82798 30.2824 2.05671 29.6174 2.72515 28.5432C2.8794 28.2363 2.46806 27.5202 2.21097 27.0598C1.4397 25.6787 0.617014 24.2975 0 22.6095C1.38828 23.2745 2.77656 23.9906 4.16484 24.6045C4.83327 24.8602 5.39887 25.781 6.32439 24.8602C6.47865 24.7068 7.45558 25.3718 7.96976 25.6787C8.84386 26.2414 9.71797 26.7017 9.8208 24.5533C11.9804 26.1902 13.78 27.6225 15.7853 29.1571C16.1966 28.2875 16.5565 27.5202 17.0193 26.5994C19.1274 28.1852 21.8526 28.8501 23.0352 31.5612C23.3437 32.1751 23.755 32.7889 24.3206 33.2493C25.2461 34.0166 26.3259 34.2212 27.3029 33.4027C28.3312 32.5331 28.177 31.5612 27.6114 30.4359C26.7887 28.8501 25.966 27.2133 25.2976 25.5764C25.0919 25.0137 25.4004 24.2464 25.4004 23.5814C25.4004 23.1722 25.349 22.763 25.1433 22.4049C23.8579 19.9496 24.372 17.2896 24.0121 14.6297C25.966 15.5504 27.7142 16.42 30.028 17.4942C30.1823 13.9135 30.3365 10.7932 30.4908 7.67291C30.5936 7.67291 30.7479 7.62176 30.7993 7.67291C32.7531 9.66787 33.0102 9.56556 34.09 6.95677C35.1184 4.55259 36.4038 2.30187 37.535 0C37.6893 0.409222 37.8949 0.971901 38.152 1.48343C39.1804 3.73415 40.2087 6.03602 41.2885 8.28674C41.7513 9.25864 42.4711 9.36095 43.2424 8.54251C43.5509 8.23559 43.7566 7.82637 44.0137 7.51945C44.2193 7.5706 44.425 7.62176 44.6307 7.72406C44.6307 10.7932 44.6307 13.8624 44.6307 16.9316C44.8363 17.0339 44.9906 17.1873 45.1963 17.2896C47.0473 16.42 48.8469 15.6016 50.8522 14.6297C50.338 17.3408 51.0065 20.0519 49.6182 22.5584C49.4639 22.8653 49.6182 23.3768 49.6696 23.786C49.6696 24.2464 49.8239 24.8091 49.6696 25.2183C49.0012 26.8552 48.2813 28.3898 47.5615 30.0267C47.253 30.7428 46.7902 31.4078 46.6874 32.1239C46.4303 33.812 47.9214 34.8862 49.4125 34.0677C50.2352 33.6073 51.1607 32.8912 51.5206 32.0728C52.7547 29.0036 55.5827 28.0829 57.845 26.446Z" fill="#EDCA4A"/>
<path d="M107.918 39.541C107.918 39.479 107.98 39.4481 108.105 39.4481C108.198 39.4481 108.276 39.479 108.338 39.541C108.431 39.5719 108.478 39.6029 108.478 39.6338C108.167 41.9869 108.011 44.1387 108.011 46.0892C108.011 46.3369 107.965 46.5227 107.871 46.6465C107.778 46.7394 107.591 46.7858 107.311 46.7858H87.0509C86.9576 46.7858 86.9109 46.693 86.9109 46.5072C86.9109 46.3214 86.9576 46.2285 87.0509 46.2285C88.1091 46.2285 88.8715 46.1511 89.3384 45.9963C89.8363 45.8415 90.1631 45.5474 90.3187 45.1139C90.5054 44.6495 90.5988 43.9529 90.5988 43.0241V21.5216C90.5988 20.5928 90.5054 19.9117 90.3187 19.4782C90.1631 19.0447 89.8363 18.7506 89.3384 18.5958C88.8404 18.41 88.0779 18.3172 87.0509 18.3172C86.9576 18.3172 86.9109 18.2243 86.9109 18.0385C86.9109 17.8527 86.9576 17.7599 87.0509 17.7599H106.471C106.782 17.7599 106.938 17.8992 106.938 18.1778L107.031 24.2152C107.031 24.2772 106.938 24.3236 106.751 24.3546C106.595 24.3855 106.502 24.3546 106.471 24.2617C105.724 20.7321 103.561 18.9673 99.9819 18.9673H98.1146C96.9943 18.9673 96.2007 19.1686 95.7338 19.5711C95.267 19.9736 95.0336 20.6547 95.0336 21.6145V31.0886H99.5151C102.938 31.0886 104.65 29.943 104.65 27.6519C104.65 27.559 104.728 27.5126 104.884 27.5126C105.07 27.5126 105.164 27.559 105.164 27.6519L105.117 31.6923L105.164 33.8751C105.226 34.8658 105.257 35.6708 105.257 36.29C105.257 36.352 105.164 36.3829 104.977 36.3829C104.79 36.3829 104.697 36.352 104.697 36.29C104.697 33.6274 102.954 32.2961 99.4684 32.2961H95.0336V42.8383C95.0336 43.86 95.2203 44.5721 95.5938 44.9746C95.9984 45.3771 96.6986 45.5784 97.6945 45.5784H99.9819C104.152 45.5784 106.798 43.5659 107.918 39.541Z" fill="#EDCA4A"/>
<path d="M145.445 17.7599C145.538 17.7599 145.585 17.8527 145.585 18.0385C145.585 18.2243 145.538 18.3172 145.445 18.3172C144.324 18.3172 143.297 18.7351 142.364 19.5711C141.43 20.407 140.667 21.6145 140.076 23.1935L131.02 46.7394C130.989 46.8632 130.817 46.9252 130.506 46.9252C130.195 46.9252 130.024 46.8632 129.993 46.7394L118.182 21.6145C117.622 20.469 117.062 19.633 116.502 19.1067C115.941 18.5803 115.272 18.3172 114.494 18.3172C114.401 18.3172 114.354 18.2243 114.354 18.0385C114.354 17.8527 114.401 17.7599 114.494 17.7599L115.708 17.8063C116.393 17.8682 117.171 17.8992 118.042 17.8992C120.221 17.8992 122.181 17.8682 123.924 17.8063C124.422 17.7753 125.06 17.7599 125.838 17.7599C125.931 17.7599 125.978 17.8527 125.978 18.0385C125.978 18.2243 125.931 18.3172 125.838 18.3172C123.877 18.3172 122.897 18.9983 122.897 20.3606C122.897 20.8869 123.053 21.4752 123.364 22.1254L132.047 40.6091L138.862 23.0078C139.142 22.2647 139.283 21.599 139.283 21.0108C139.283 20.1439 138.987 19.4782 138.396 19.0138C137.835 18.5494 136.98 18.3172 135.828 18.3172C135.735 18.3172 135.688 18.2243 135.688 18.0385C135.688 17.8527 135.735 17.7599 135.828 17.7599L138.069 17.8063C139.251 17.8682 140.341 17.8992 141.337 17.8992C141.928 17.8992 142.659 17.8682 143.531 17.8063L145.445 17.7599Z" fill="#EDCA4A"/>
<path d="M177.767 46.2285C177.922 46.2285 178 46.3214 178 46.5072C178 46.693 177.922 46.7858 177.767 46.7858C177.175 46.7858 176.226 46.7549 174.919 46.693C173.612 46.631 172.663 46.6001 172.071 46.6001C171.293 46.6001 170.375 46.631 169.317 46.693C168.259 46.7549 167.434 46.7858 166.843 46.7858C166.718 46.7858 166.656 46.693 166.656 46.5072C166.656 46.3214 166.718 46.2285 166.843 46.2285C167.745 46.2285 168.399 46.1357 168.804 45.9499C169.239 45.7332 169.457 45.3926 169.457 44.9282C169.457 44.4638 169.193 43.6743 168.664 42.5597L163.622 32.389H155.172L151.578 40.4233C151.173 41.3522 150.971 42.1881 150.971 42.9312C150.971 44.0148 151.36 44.8353 152.138 45.3926C152.916 45.9499 154.005 46.2285 155.406 46.2285C155.561 46.2285 155.639 46.3214 155.639 46.5072C155.639 46.693 155.561 46.7858 155.406 46.7858C154.846 46.7858 154.036 46.7549 152.978 46.693C151.796 46.631 150.769 46.6001 149.897 46.6001C149.057 46.6001 148.077 46.631 146.956 46.693C145.96 46.7549 145.136 46.7858 144.482 46.7858C144.327 46.7858 144.249 46.693 144.249 46.5072C144.249 46.3214 144.327 46.2285 144.482 46.2285C145.354 46.2285 146.085 46.0583 146.676 45.7177C147.267 45.3771 147.843 44.7734 148.403 43.9065C148.964 43.0086 149.633 41.6928 150.411 39.9589L160.447 17.4812C160.51 17.3883 160.65 17.3419 160.868 17.3419C161.085 17.3419 161.21 17.3883 161.241 17.4812L172.678 40.4233C173.767 42.6525 174.67 44.1851 175.386 45.0211C176.133 45.826 176.926 46.2285 177.767 46.2285ZM155.686 31.2279H163.062L159.187 23.4257L155.686 31.2279Z" fill="#EDCA4A"/>
<path d="M98.2635 62.6117C98.2822 62.6117 98.2915 62.6395 98.2915 62.6953C98.2915 62.751 98.2822 62.7789 98.2635 62.7789H95.7707C95.5653 62.7789 95.1825 62.398 94.6223 61.6364C94.0621 60.8655 93.3852 59.7927 92.5916 58.418C92.5169 58.4273 92.4095 58.4319 92.2695 58.4319C91.9054 58.4319 91.6486 58.4273 91.4992 58.418V61.6503C91.4992 61.9383 91.5226 62.1473 91.5693 62.2773C91.616 62.4073 91.7046 62.4956 91.8354 62.542C91.9754 62.5885 92.1948 62.6117 92.4936 62.6117C92.5122 62.6117 92.5216 62.6395 92.5216 62.6953C92.5216 62.751 92.5122 62.7789 92.4936 62.7789C92.1855 62.7789 91.9427 62.7742 91.7653 62.7649L90.701 62.751L89.6786 62.7649C89.4919 62.7742 89.2398 62.7789 88.9224 62.7789C88.8944 62.7789 88.8804 62.751 88.8804 62.6953C88.8804 62.6395 88.8944 62.6117 88.9224 62.6117C89.2212 62.6117 89.4359 62.5885 89.5666 62.542C89.7066 62.4956 89.8 62.4073 89.8467 62.2773C89.9027 62.138 89.9307 61.929 89.9307 61.6503V55.1996C89.9307 54.9209 89.9074 54.7166 89.8607 54.5866C89.814 54.4565 89.7207 54.3683 89.5806 54.3218C89.4406 54.2661 89.2258 54.2383 88.9364 54.2383C88.9177 54.2383 88.9084 54.2104 88.9084 54.1547C88.9084 54.0989 88.9177 54.0711 88.9364 54.0711L89.6786 54.085C90.1081 54.1036 90.4489 54.1129 90.701 54.1129C90.9717 54.1129 91.2705 54.0989 91.5973 54.0711C91.7 54.0618 91.8307 54.0525 91.9894 54.0432C92.1575 54.0339 92.3535 54.0293 92.5776 54.0293C93.4366 54.0293 94.0994 54.1872 94.5663 54.503C95.0424 54.8095 95.2805 55.2414 95.2805 55.7987C95.2805 56.226 95.1498 56.6346 94.8884 57.0248C94.627 57.4149 94.2862 57.7307 93.866 57.9722C94.613 59.1425 95.2385 60.0574 95.7427 60.7169C96.2562 61.3763 96.709 61.8593 97.1011 62.1658C97.5026 62.4631 97.89 62.6117 98.2635 62.6117ZM91.4992 58.014C91.7233 58.0511 91.9941 58.0697 92.3115 58.0697C92.6476 58.0697 92.9137 58.0186 93.1098 57.9164C93.3058 57.8143 93.4459 57.6378 93.5299 57.387C93.6233 57.1362 93.67 56.7833 93.67 56.3281C93.67 55.5665 93.5579 55.0417 93.3339 54.7538C93.1098 54.4658 92.7877 54.3218 92.3675 54.3218C92.0501 54.3218 91.826 54.3915 91.6953 54.5308C91.5646 54.6702 91.4992 54.9024 91.4992 55.2275V58.014Z" fill="#666666"/>
<path d="M105.353 60.5636C105.353 60.545 105.372 60.5357 105.409 60.5357C105.437 60.5357 105.461 60.545 105.479 60.5636C105.507 60.5729 105.521 60.5822 105.521 60.5915C105.428 61.316 105.381 61.9754 105.381 62.5699C105.381 62.6442 105.367 62.6999 105.339 62.7371C105.311 62.7649 105.255 62.7789 105.171 62.7789H98.9811C98.9531 62.7789 98.9391 62.751 98.9391 62.6953C98.9391 62.6395 98.9531 62.6117 98.9811 62.6117C99.2799 62.6117 99.4946 62.5885 99.6253 62.542C99.7654 62.4956 99.8588 62.4073 99.9054 62.2773C99.9521 62.138 99.9755 61.929 99.9755 61.6503V55.1996C99.9755 54.9209 99.9521 54.7166 99.9054 54.5866C99.8588 54.4565 99.7654 54.3683 99.6253 54.3218C99.4853 54.2661 99.2706 54.2383 98.9811 54.2383C98.9531 54.2383 98.9391 54.2104 98.9391 54.1547C98.9391 54.0989 98.9531 54.0711 98.9811 54.0711H104.919C105.012 54.0711 105.059 54.1129 105.059 54.1965L105.087 56.0495C105.087 56.0681 105.059 56.082 105.003 56.0913C104.956 56.1006 104.928 56.0913 104.919 56.0634C104.77 55.5247 104.518 55.1253 104.163 54.8652C103.808 54.6051 103.341 54.4751 102.762 54.4751H102.342C102.062 54.4751 101.857 54.5355 101.726 54.6562C101.595 54.777 101.53 54.9627 101.53 55.2135V58.0558H102.692C103.234 58.0558 103.649 57.9629 103.939 57.7771C104.228 57.5913 104.373 57.3313 104.373 56.9969C104.373 56.969 104.396 56.9551 104.443 56.9551C104.499 56.9551 104.527 56.969 104.527 56.9969L104.513 58.2508L104.527 58.9196C104.546 59.2354 104.555 59.4862 104.555 59.6719C104.555 59.6905 104.527 59.6998 104.471 59.6998C104.415 59.6998 104.387 59.6905 104.387 59.6719C104.387 59.2911 104.238 58.9939 103.939 58.7802C103.649 58.5573 103.229 58.4459 102.678 58.4459H101.53V61.5946C101.53 61.864 101.581 62.0637 101.684 62.1937C101.787 62.3237 101.95 62.3888 102.174 62.3888H102.636C103.365 62.3888 103.948 62.2401 104.387 61.9429C104.826 61.6457 105.148 61.1859 105.353 60.5636Z" fill="#666666"/>
<path d="M116.456 62.6117C116.502 62.6117 116.526 62.6395 116.526 62.6953C116.526 62.751 116.502 62.7789 116.456 62.7789C116.269 62.7789 115.979 62.7696 115.587 62.751C115.176 62.7324 114.882 62.7231 114.705 62.7231C114.472 62.7231 114.187 62.7324 113.851 62.751C113.533 62.7696 113.281 62.7789 113.094 62.7789C113.057 62.7789 113.038 62.751 113.038 62.6953C113.038 62.6395 113.057 62.6117 113.094 62.6117C113.337 62.6117 113.51 62.5885 113.613 62.542C113.725 62.4863 113.781 62.3934 113.781 62.2634C113.781 62.1055 113.687 61.8407 113.501 61.4692L112.044 58.6131H109.551L108.557 60.8005C108.436 61.0698 108.375 61.3206 108.375 61.5528C108.375 61.8872 108.492 62.1473 108.725 62.333C108.968 62.5188 109.29 62.6117 109.691 62.6117C109.738 62.6117 109.761 62.6395 109.761 62.6953C109.761 62.751 109.738 62.7789 109.691 62.7789C109.523 62.7789 109.281 62.7696 108.963 62.751C108.608 62.7324 108.3 62.7231 108.039 62.7231C107.787 62.7231 107.483 62.7324 107.128 62.751C106.811 62.7696 106.554 62.7789 106.358 62.7789C106.321 62.7789 106.302 62.751 106.302 62.6953C106.302 62.6395 106.321 62.6117 106.358 62.6117C106.62 62.6117 106.839 62.5606 107.016 62.4584C107.194 62.347 107.371 62.1565 107.549 61.8872C107.726 61.6085 107.936 61.1999 108.179 60.6611L111.218 54.0153C111.236 53.9875 111.279 53.9735 111.344 53.9735C111.419 53.9735 111.461 53.9875 111.47 54.0153L114.971 60.8701C115.298 61.5296 115.569 61.9847 115.783 62.2355C115.998 62.4863 116.222 62.6117 116.456 62.6117ZM109.733 58.2229H111.848L110.728 56.0216L109.733 58.2229Z" fill="#666666"/>
<path d="M119.702 61.5946C119.702 61.8361 119.721 62.0126 119.758 62.124C119.796 62.2262 119.866 62.2959 119.968 62.333C120.08 62.3702 120.258 62.3888 120.5 62.3888H120.977C121.705 62.3888 122.335 62.1983 122.867 61.8175C123.399 61.4274 123.754 60.9026 123.932 60.2432C123.932 60.2246 123.95 60.2153 123.988 60.2153C124.006 60.2153 124.025 60.2246 124.044 60.2432C124.072 60.2524 124.086 60.2617 124.086 60.271C124.002 61.1906 123.96 61.9569 123.96 62.5699C123.96 62.6442 123.941 62.6999 123.904 62.7371C123.876 62.7649 123.824 62.7789 123.749 62.7789H117.139C117.121 62.7789 117.111 62.751 117.111 62.6953C117.111 62.6395 117.121 62.6117 117.139 62.6117C117.438 62.6117 117.653 62.5885 117.784 62.542C117.924 62.4956 118.017 62.4073 118.064 62.2773C118.12 62.138 118.148 61.929 118.148 61.6503V55.1996C118.148 54.9209 118.12 54.7166 118.064 54.5866C118.017 54.4565 117.924 54.3683 117.784 54.3218C117.643 54.2661 117.429 54.2383 117.139 54.2383C117.121 54.2383 117.111 54.2104 117.111 54.1547C117.111 54.0989 117.121 54.0711 117.139 54.0711L117.854 54.085C118.283 54.1036 118.638 54.1129 118.918 54.1129C119.198 54.1129 119.553 54.1036 119.982 54.085L120.696 54.0711C120.724 54.0711 120.738 54.0989 120.738 54.1547C120.738 54.2104 120.724 54.2383 120.696 54.2383C120.407 54.2383 120.192 54.2661 120.052 54.3218C119.912 54.3683 119.819 54.4612 119.772 54.6005C119.725 54.7305 119.702 54.9349 119.702 55.2135V61.5946Z" fill="#666666"/>
<path d="M135.139 60.5636C135.139 60.545 135.158 60.5357 135.195 60.5357C135.223 60.5357 135.247 60.545 135.265 60.5636C135.294 60.5729 135.308 60.5822 135.308 60.5915C135.214 61.316 135.167 61.9754 135.167 62.5699C135.167 62.6442 135.153 62.6999 135.125 62.7371C135.097 62.7649 135.041 62.7789 134.957 62.7789H128.767C128.739 62.7789 128.725 62.751 128.725 62.6953C128.725 62.6395 128.739 62.6117 128.767 62.6117C129.066 62.6117 129.281 62.5885 129.412 62.542C129.552 62.4956 129.645 62.4073 129.692 62.2773C129.738 62.138 129.762 61.929 129.762 61.6503V55.1996C129.762 54.9209 129.738 54.7166 129.692 54.5866C129.645 54.4565 129.552 54.3683 129.412 54.3218C129.271 54.2661 129.057 54.2383 128.767 54.2383C128.739 54.2383 128.725 54.2104 128.725 54.1547C128.725 54.0989 128.739 54.0711 128.767 54.0711H134.705C134.799 54.0711 134.845 54.1129 134.845 54.1965L134.873 56.0495C134.873 56.0681 134.845 56.082 134.789 56.0913C134.743 56.1006 134.715 56.0913 134.705 56.0634C134.556 55.5247 134.304 55.1253 133.949 54.8652C133.594 54.6051 133.127 54.4751 132.549 54.4751H132.128C131.848 54.4751 131.643 54.5355 131.512 54.6562C131.382 54.777 131.316 54.9627 131.316 55.2135V58.0558H132.479C133.02 58.0558 133.436 57.9629 133.725 57.7771C134.014 57.5913 134.159 57.3313 134.159 56.9969C134.159 56.969 134.182 56.9551 134.229 56.9551C134.285 56.9551 134.313 56.969 134.313 56.9969L134.299 58.2508L134.313 58.9196C134.332 59.2354 134.341 59.4862 134.341 59.6719C134.341 59.6905 134.313 59.6998 134.257 59.6998C134.201 59.6998 134.173 59.6905 134.173 59.6719C134.173 59.2911 134.024 58.9939 133.725 58.7802C133.436 58.5573 133.015 58.4459 132.465 58.4459H131.316V61.5946C131.316 61.864 131.368 62.0637 131.47 62.1937C131.573 62.3237 131.736 62.3888 131.96 62.3888H132.423C133.151 62.3888 133.734 62.2401 134.173 61.9429C134.612 61.6457 134.934 61.1859 135.139 60.5636Z" fill="#666666"/>
<path d="M138.637 55.4782C138.637 55.8126 138.721 56.1099 138.889 56.3699C139.067 56.63 139.281 56.8576 139.534 57.0526C139.786 57.2477 140.126 57.4845 140.556 57.7632C141.023 58.0604 141.396 58.3205 141.676 58.5434C141.956 58.7663 142.194 59.0403 142.39 59.3654C142.587 59.6812 142.685 60.0481 142.685 60.4661C142.685 60.9491 142.554 61.381 142.292 61.7618C142.031 62.1333 141.667 62.4259 141.2 62.6395C140.743 62.8439 140.229 62.9461 139.66 62.9461C139.239 62.9461 138.801 62.8903 138.343 62.7789C137.886 62.6581 137.578 62.5281 137.419 62.3888C137.372 62.3516 137.335 62.3191 137.307 62.2912C137.288 62.2541 137.279 62.1983 137.279 62.124L137.237 59.9088V59.8948C137.237 59.8577 137.26 59.8391 137.307 59.8391C137.353 59.8298 137.381 59.8438 137.391 59.8809C137.671 60.4475 137.914 60.9073 138.119 61.2602C138.334 61.6132 138.6 61.9243 138.917 62.1937C139.244 62.4631 139.613 62.5977 140.024 62.5977C140.397 62.5977 140.705 62.5002 140.948 62.3052C141.191 62.1008 141.312 61.7572 141.312 61.2742C141.312 60.8655 141.219 60.5079 141.032 60.2014C140.855 59.8948 140.635 59.6348 140.374 59.4211C140.112 59.2075 139.753 58.9521 139.295 58.6549C138.847 58.3669 138.497 58.1208 138.245 57.9164C138.002 57.7121 137.792 57.4659 137.615 57.178C137.437 56.8901 137.349 56.551 137.349 56.1609C137.349 55.6687 137.489 55.2553 137.769 54.9209C138.058 54.5773 138.427 54.3265 138.875 54.1686C139.323 54.0014 139.795 53.9178 140.29 53.9178C140.617 53.9178 140.948 53.9503 141.284 54.0153C141.62 54.0711 141.891 54.1407 142.096 54.2243C142.18 54.2615 142.236 54.3033 142.264 54.3497C142.292 54.3869 142.306 54.438 142.306 54.503V56.551C142.306 56.5789 142.283 56.6021 142.236 56.6207C142.19 56.63 142.162 56.6207 142.152 56.5928L142.04 56.3281C141.807 55.743 141.532 55.246 141.214 54.8374C140.906 54.4287 140.472 54.2243 139.912 54.2243C139.538 54.2243 139.23 54.3311 138.987 54.5448C138.754 54.7584 138.637 55.0696 138.637 55.4782Z" fill="#666666"/>
<path d="M146.797 54.3915C145.686 54.3915 144.888 55.1114 144.402 56.551C144.393 56.5789 144.365 56.5928 144.318 56.5928C144.272 56.5836 144.248 56.565 144.248 56.5371C144.286 56.1656 144.328 55.6872 144.374 55.1021C144.421 54.5076 144.444 54.0618 144.444 53.7646C144.444 53.7181 144.468 53.6949 144.514 53.6949C144.57 53.6949 144.598 53.7181 144.598 53.7646C144.598 53.9689 144.864 54.0711 145.397 54.0711C146.199 54.0989 147.138 54.1129 148.212 54.1129C148.762 54.1129 149.346 54.1036 149.962 54.085L150.914 54.0711C151.269 54.0711 151.526 54.0478 151.685 54.0014C151.853 53.955 151.96 53.8621 152.007 53.7228C152.016 53.6856 152.044 53.667 152.091 53.667C152.147 53.667 152.175 53.6856 152.175 53.7228C152.147 54.0014 152.114 54.4472 152.077 55.0603C152.049 55.6733 152.035 56.1656 152.035 56.5371C152.035 56.565 152.011 56.5789 151.965 56.5789C151.918 56.5789 151.89 56.565 151.881 56.5371C151.741 55.8219 151.479 55.2878 151.096 54.9349C150.714 54.5726 150.242 54.3915 149.682 54.3915C149.411 54.3915 149.229 54.4519 149.136 54.5726C149.052 54.6841 149.01 54.9024 149.01 55.2275V61.6503C149.01 61.9383 149.038 62.1473 149.094 62.2773C149.15 62.4073 149.257 62.4956 149.416 62.542C149.575 62.5885 149.827 62.6117 150.172 62.6117C150.2 62.6117 150.214 62.6395 150.214 62.6953C150.214 62.751 150.2 62.7789 150.172 62.7789C149.836 62.7789 149.57 62.7742 149.374 62.7649L148.212 62.751L147.077 62.7649C146.881 62.7742 146.61 62.7789 146.265 62.7789C146.237 62.7789 146.223 62.751 146.223 62.6953C146.223 62.6395 146.237 62.6117 146.265 62.6117C146.601 62.6117 146.848 62.5885 147.007 62.542C147.175 62.4956 147.287 62.4073 147.343 62.2773C147.409 62.138 147.441 61.929 147.441 61.6503V55.1996C147.441 54.8838 147.399 54.6702 147.315 54.5587C147.231 54.4472 147.058 54.3915 146.797 54.3915Z" fill="#666666"/>
<path d="M162.024 62.6117C162.071 62.6117 162.094 62.6395 162.094 62.6953C162.094 62.751 162.071 62.7789 162.024 62.7789C161.837 62.7789 161.548 62.7696 161.156 62.751C160.745 62.7324 160.451 62.7231 160.273 62.7231C160.04 62.7231 159.755 62.7324 159.419 62.751C159.102 62.7696 158.849 62.7789 158.663 62.7789C158.625 62.7789 158.607 62.751 158.607 62.6953C158.607 62.6395 158.625 62.6117 158.663 62.6117C158.905 62.6117 159.078 62.5885 159.181 62.542C159.293 62.4863 159.349 62.3934 159.349 62.2634C159.349 62.1055 159.256 61.8407 159.069 61.4692L157.612 58.6131H155.12L154.125 60.8005C154.004 61.0698 153.943 61.3206 153.943 61.5528C153.943 61.8872 154.06 62.1473 154.293 62.333C154.536 62.5188 154.858 62.6117 155.26 62.6117C155.306 62.6117 155.33 62.6395 155.33 62.6953C155.33 62.751 155.306 62.7789 155.26 62.7789C155.092 62.7789 154.849 62.7696 154.531 62.751C154.177 62.7324 153.868 62.7231 153.607 62.7231C153.355 62.7231 153.051 62.7324 152.697 62.751C152.379 62.7696 152.123 62.7789 151.926 62.7789C151.889 62.7789 151.87 62.751 151.87 62.6953C151.87 62.6395 151.889 62.6117 151.926 62.6117C152.188 62.6117 152.407 62.5606 152.585 62.4584C152.762 62.347 152.939 62.1565 153.117 61.8872C153.294 61.6085 153.504 61.1999 153.747 60.6611L156.786 54.0153C156.805 53.9875 156.847 53.9735 156.912 53.9735C156.987 53.9735 157.029 53.9875 157.038 54.0153L160.539 60.8701C160.866 61.5296 161.137 61.9847 161.352 62.2355C161.566 62.4863 161.79 62.6117 162.024 62.6117ZM155.302 58.2229H157.416L156.296 56.0216L155.302 58.2229Z" fill="#666666"/>
<path d="M164.412 54.3915C163.301 54.3915 162.502 55.1114 162.017 56.551C162.008 56.5789 161.98 56.5928 161.933 56.5928C161.886 56.5836 161.863 56.565 161.863 56.5371C161.9 56.1656 161.942 55.6872 161.989 55.1021C162.036 54.5076 162.059 54.0618 162.059 53.7646C162.059 53.7181 162.082 53.6949 162.129 53.6949C162.185 53.6949 162.213 53.7181 162.213 53.7646C162.213 53.9689 162.479 54.0711 163.011 54.0711C163.814 54.0989 164.753 54.1129 165.826 54.1129C166.377 54.1129 166.961 54.1036 167.577 54.085L168.529 54.0711C168.884 54.0711 169.141 54.0478 169.299 54.0014C169.467 53.955 169.575 53.8621 169.621 53.7228C169.631 53.6856 169.659 53.667 169.706 53.667C169.762 53.667 169.79 53.6856 169.79 53.7228C169.762 54.0014 169.729 54.4472 169.691 55.0603C169.663 55.6733 169.649 56.1656 169.649 56.5371C169.649 56.565 169.626 56.5789 169.579 56.5789C169.533 56.5789 169.505 56.565 169.495 56.5371C169.355 55.8219 169.094 55.2878 168.711 54.9349C168.328 54.5726 167.857 54.3915 167.297 54.3915C167.026 54.3915 166.844 54.4519 166.751 54.5726C166.666 54.6841 166.624 54.9024 166.624 55.2275V61.6503C166.624 61.9383 166.652 62.1473 166.708 62.2773C166.765 62.4073 166.872 62.4956 167.031 62.542C167.189 62.5885 167.441 62.6117 167.787 62.6117C167.815 62.6117 167.829 62.6395 167.829 62.6953C167.829 62.751 167.815 62.7789 167.787 62.7789C167.451 62.7789 167.185 62.7742 166.989 62.7649L165.826 62.751L164.692 62.7649C164.496 62.7742 164.225 62.7789 163.88 62.7789C163.852 62.7789 163.838 62.751 163.838 62.6953C163.838 62.6395 163.852 62.6117 163.88 62.6117C164.216 62.6117 164.463 62.5885 164.622 62.542C164.79 62.4956 164.902 62.4073 164.958 62.2773C165.023 62.138 165.056 61.929 165.056 61.6503V55.1996C165.056 54.8838 165.014 54.6702 164.93 54.5587C164.846 54.4472 164.673 54.3915 164.412 54.3915Z" fill="#666666"/>
<path d="M177.528 60.5636C177.528 60.545 177.547 60.5357 177.584 60.5357C177.612 60.5357 177.636 60.545 177.654 60.5636C177.682 60.5729 177.696 60.5822 177.696 60.5915C177.603 61.316 177.556 61.9754 177.556 62.5699C177.556 62.6442 177.542 62.6999 177.514 62.7371C177.486 62.7649 177.43 62.7789 177.346 62.7789H171.156C171.128 62.7789 171.114 62.751 171.114 62.6953C171.114 62.6395 171.128 62.6117 171.156 62.6117C171.455 62.6117 171.67 62.5885 171.8 62.542C171.94 62.4956 172.034 62.4073 172.08 62.2773C172.127 62.138 172.15 61.929 172.15 61.6503V55.1996C172.15 54.9209 172.127 54.7166 172.08 54.5866C172.034 54.4565 171.94 54.3683 171.8 54.3218C171.66 54.2661 171.446 54.2383 171.156 54.2383C171.128 54.2383 171.114 54.2104 171.114 54.1547C171.114 54.0989 171.128 54.0711 171.156 54.0711H177.094C177.187 54.0711 177.234 54.1129 177.234 54.1965L177.262 56.0495C177.262 56.0681 177.234 56.082 177.178 56.0913C177.131 56.1006 177.103 56.0913 177.094 56.0634C176.945 55.5247 176.693 55.1253 176.338 54.8652C175.983 54.6051 175.516 54.4751 174.937 54.4751H174.517C174.237 54.4751 174.032 54.5355 173.901 54.6562C173.77 54.777 173.705 54.9627 173.705 55.2135V58.0558H174.867C175.409 58.0558 175.824 57.9629 176.114 57.7771C176.403 57.5913 176.548 57.3313 176.548 56.9969C176.548 56.969 176.571 56.9551 176.618 56.9551C176.674 56.9551 176.702 56.969 176.702 56.9969L176.688 58.2508L176.702 58.9196C176.721 59.2354 176.73 59.4862 176.73 59.6719C176.73 59.6905 176.702 59.6998 176.646 59.6998C176.59 59.6998 176.562 59.6905 176.562 59.6719C176.562 59.2911 176.412 58.9939 176.114 58.7802C175.824 58.5573 175.404 58.4459 174.853 58.4459H173.705V61.5946C173.705 61.864 173.756 62.0637 173.859 62.1937C173.962 62.3237 174.125 62.3888 174.349 62.3888H174.811C175.54 62.3888 176.123 62.2401 176.562 61.9429C177.001 61.6457 177.323 61.1859 177.528 60.5636Z" fill="#666666"/>
</svg>
