<svg width="68" height="74" viewBox="0 0 68 74" fill="none" xmlns="http://www.w3.org/2000/svg">
<g filter="url(#filter0_d)">
<path d="M30.5 6.54166C36.5668 6.54166 42.3852 8.9517 46.6751 13.2416C50.965 17.5315 53.375 23.3498 53.375 29.4167C53.375 38.8869 46.1567 48.8096 32.025 59.4083C31.585 59.7383 31.0499 59.9167 30.5 59.9167C29.9501 59.9167 29.415 59.7383 28.975 59.4083C14.8433 48.8096 7.625 38.8869 7.625 29.4167C7.625 23.3498 10.035 17.5315 14.3249 13.2416C18.6148 8.9517 24.4332 6.54166 30.5 6.54166ZM30.5 21.7917C28.4777 21.7917 26.5383 22.595 25.1083 24.025C23.6783 25.4549 22.875 27.3944 22.875 29.4167C22.875 31.4389 23.6783 33.3784 25.1083 34.8084C26.5383 36.2383 28.4777 37.0417 30.5 37.0417C32.5223 37.0417 34.4617 36.2383 35.8917 34.8084C37.3217 33.3784 38.125 31.4389 38.125 29.4167C38.125 27.3944 37.3217 25.4549 35.8917 24.025C34.4617 22.595 32.5223 21.7917 30.5 21.7917Z" fill="#EDCA4A"/>
</g>
<defs>
<filter id="filter0_d" x="-6" y="-2" width="81" height="81" filterUnits="userSpaceOnUse" color-interpolation-filters="sRGB">
<feFlood flood-opacity="0" result="BackgroundImageFix"/>
<feColorMatrix in="SourceAlpha" type="matrix" values="0 0 0 0 0 0 0 0 0 0 0 0 0 0 0 0 0 0 127 0"/>
<feOffset dx="4" dy="4"/>
<feGaussianBlur stdDeviation="5"/>
<feColorMatrix type="matrix" values="0 0 0 0 0.0166667 0 0 0 0 0.0166667 0 0 0 0 0.0166667 0 0 0 0.6 0"/>
<feBlend mode="normal" in2="BackgroundImageFix" result="effect1_dropShadow"/>
<feBlend mode="normal" in="SourceGraphic" in2="effect1_dropShadow" result="shape"/>
</filter>
</defs>
</svg>
