<svg width="18" height="26" viewBox="0 0 18 26" fill="none" xmlns="http://www.w3.org/2000/svg">
<path d="M16.4669 0.727893V0.725207C16.0054 0.261276 15.3781 0.000268595 14.7238 0H3.27356C1.9136 0.00443182 0.812293 1.10574 0.807861 2.4657V23.5316C0.80813 24.186 1.06914 24.8133 1.53307 25.2748C1.99391 25.7381 2.62014 25.999 3.27356 26H14.7265C15.3799 25.999 16.0061 25.7381 16.4669 25.2748C16.9302 24.814 17.1911 24.1877 17.1922 23.5343V2.46839C17.1911 1.81496 16.9302 1.18873 16.4669 0.727893ZM9.00001 24.3267C8.6321 24.3267 8.33389 24.0284 8.33389 23.6605C8.33389 23.2926 8.6321 22.9944 9.00001 22.9944C9.36792 22.9944 9.66613 23.2926 9.66613 23.6605C9.66613 24.0284 9.36792 24.3267 9.00001 24.3267ZM15.2341 20.1446C15.2341 21.0347 14.5126 21.7562 13.6225 21.7562H4.3748C3.48475 21.7562 2.76323 21.0347 2.76323 20.1446V4.44525C2.76323 3.55519 3.48475 2.83368 4.3748 2.83368H13.6252C14.5153 2.83368 15.2368 3.55519 15.2368 4.44525L15.2341 20.1446Z" fill="#666666"/>
</svg>
