<svg width="20" height="21" viewBox="0 0 20 21" fill="none" xmlns="http://www.w3.org/2000/svg">
<path d="M16.0467 0.993531L18.7457 3.7143C19.1575 4.11592 19.2971 4.64826 19.2977 5.16671C19.229 7.45945 18.1028 9.62662 16.9464 11.406C14.8215 14.3267 12.1868 17.0066 9.00289 18.6886C7.66777 19.3337 5.96424 20.0906 4.47399 20.0183C3.9134 20.0118 3.3632 19.8608 3.00185 19.466L0.282468 16.7452C-0.198093 16.1802 -0.0319402 15.6339 0.527822 15.2723L4.67847 13.0835C5.17019 12.8531 5.69705 12.9852 6.04841 13.329L7.05029 14.3314C7.13505 14.3932 7.23154 14.4326 7.33655 14.4336C8.82444 14.0493 10.1958 12.8848 11.1396 11.8561C12.0834 10.8274 13.362 9.72168 13.6647 8.28638C13.7142 8.10897 13.7316 7.89166 13.6136 7.76473L12.4277 6.59866C12.123 6.19669 11.9741 5.61631 12.2232 5.18718L12.2232 5.16672L14.5541 1.21857C14.9174 0.638984 15.6195 0.57855 16.0467 0.993531Z" fill="#EDCA4A"/>
</svg>
