<svg width="43" height="43" viewBox="0 0 43 43" fill="none" xmlns="http://www.w3.org/2000/svg">
<path d="M30.8167 40.1334H10.7501C10.3545 40.1334 10.0334 40.4544 10.0334 40.85V42.2834C10.0334 42.6789 10.3545 43 10.7501 43C11.1457 43 11.4667 42.6789 11.4667 42.2834V41.5667H30.8167C31.2123 41.5667 31.5334 41.2457 31.5334 40.8501C31.5334 40.4545 31.2124 40.1334 30.8167 40.1334Z" fill="#232323"/>
<path d="M15.7666 17.9166C15.7666 18.3122 16.0877 18.6333 16.4832 18.6333H19.35C19.7455 18.6333 20.0666 18.3122 20.0666 17.9166V13.6166C20.0666 13.2211 19.7455 12.9 19.35 12.9H16.4833C16.0878 12.9 15.7667 13.2211 15.7667 13.6166V17.9166H15.7666ZM17.2 14.3334H18.6333V17.2H17.2V14.3334Z" fill="#232323"/>
<path d="M9.31664 8.60001H0.716639C0.321072 8.60001 0 8.92108 0 9.31664V23.65C0 24.0456 0.321072 24.3666 0.716639 24.3666C1.11221 24.3666 1.43328 24.0456 1.43328 23.65V10.0334H9.31664C9.71221 10.0334 10.0333 9.71229 10.0333 9.31673C10.0333 8.92116 9.71229 8.60001 9.31664 8.60001Z" fill="#232323"/>
<path d="M34.4001 35.1166C34.4001 35.5122 34.7212 35.8333 35.1168 35.8333H37.9834C38.379 35.8333 38.7001 35.5122 38.7001 35.1166V30.8166C38.7001 30.4211 38.379 30.1 37.9834 30.1H35.1168C34.7212 30.1 34.4001 30.4211 34.4001 30.8166V35.1166ZM35.8335 31.5334H37.2669V34.4H35.8335V31.5334Z" fill="#232323"/>
<path d="M3.58336 25.8C0.0408164 25.8 0 35.0235 0 35.1167C0 36.8474 1.23339 38.2944 2.86664 38.6276V42.2834C2.86664 42.6789 3.18771 43 3.58328 43C3.97884 43 4.29992 42.6789 4.29992 42.2834V38.6276C5.93316 38.2944 7.16655 36.8474 7.16655 35.1167C7.16664 35.0235 7.12582 25.8 3.58336 25.8ZM3.58336 37.2667C2.39801 37.2667 1.43336 36.302 1.43336 35.1167C1.43336 31.5462 2.39229 27.2333 3.58336 27.2333C4.77443 27.2333 5.73336 31.5462 5.73336 35.1167C5.73336 36.302 4.76872 37.2667 3.58336 37.2667Z" fill="#232323"/>
<path d="M7.88341 21.5H5.01669C4.62112 21.5 4.30005 21.8211 4.30005 22.2166V23.65C4.30005 24.0456 4.62112 24.3666 5.01669 24.3666C5.41225 24.3666 5.73333 24.0456 5.73333 23.65V22.9334H7.16669V26.5167C7.16669 26.9123 7.48776 27.2334 7.88332 27.2334C8.27889 27.2334 8.59996 26.9123 8.59996 26.5167V22.2167C8.60005 21.8211 8.27898 21.5 7.88341 21.5Z" fill="#232323"/>
<path d="M35.1168 18.6334H37.9834C38.379 18.6334 38.7001 18.3123 38.7001 17.9167V13.6167C38.7001 13.2212 38.379 12.9001 37.9834 12.9001H35.1168C34.7212 12.9001 34.4001 13.2212 34.4001 13.6167V17.9167C34.4001 18.3123 34.7212 18.6334 35.1168 18.6334ZM35.8335 14.3334H37.2669V17.2H35.8335V14.3334Z" fill="#232323"/>
<path d="M7.88341 12.9H5.01669C4.62112 12.9 4.30005 13.2211 4.30005 13.6166V17.9166C4.30005 18.3122 4.62112 18.6333 5.01669 18.6333H7.88332C8.27889 18.6333 8.59996 18.3122 8.59996 17.9166V13.6166C8.60005 13.2211 8.27898 12.9 7.88341 12.9ZM7.16669 17.2H5.73341V14.3334H7.16677V17.2H7.16669Z" fill="#232323"/>
<path d="M22.9333 17.9166C22.9333 18.3122 23.2544 18.6333 23.65 18.6333H26.5166C26.9122 18.6333 27.2333 18.3122 27.2333 17.9166V13.6166C27.2333 13.2211 26.9122 12.9 26.5166 12.9H23.65C23.2544 12.9 22.9333 13.2211 22.9333 13.6166V17.9166ZM24.3666 14.3334H25.8V17.2H24.3666V14.3334Z" fill="#232323"/>
<path d="M42.2834 8.60001H33.6834C33.2879 8.60001 32.9668 8.92108 32.9668 9.31664C32.9668 9.71221 33.2879 10.0333 33.6834 10.0333H41.5668V38.8319C41.3418 38.7516 41.1031 38.7 40.8502 38.7C40.7262 38.7 40.6029 38.7108 40.4818 38.7323C39.9873 37.8414 39.0463 37.2666 37.9835 37.2666C36.9207 37.2666 35.9797 37.8414 35.4852 38.7323C35.3641 38.7108 35.2408 38.7 35.1169 38.7C33.9315 38.7 32.9669 39.6646 32.9669 40.85C32.9669 42.0354 33.9315 43 35.1169 43H40.8501C42.0354 43 43.0001 42.0354 43.0001 40.85V9.31664C43.0001 8.92108 42.679 8.60001 42.2834 8.60001ZM40.8501 41.5666H35.1167C34.7218 41.5666 34.4001 41.2449 34.4001 40.85C34.4001 40.4551 34.7218 40.1334 35.1167 40.1334C35.2543 40.1334 35.3847 40.1728 35.5051 40.2502C35.7015 40.3763 35.9466 40.3993 36.1631 40.3118C36.3795 40.2244 36.5393 40.0366 36.5916 39.8094C36.7429 39.1565 37.3155 38.7 37.9834 38.7C38.6514 38.7 39.224 39.1565 39.3752 39.8094C39.4275 40.0366 39.5874 40.2244 39.8038 40.3118C40.0195 40.3993 40.2653 40.3763 40.4617 40.2502C40.9283 39.9492 41.5668 40.3175 41.5668 40.85C41.5667 41.2449 41.245 41.5666 40.8501 41.5666Z" fill="#232323"/>
<path d="M23.65 10.0334H26.5166C26.9122 10.0334 27.2333 9.71228 27.2333 9.31672V5.01672C27.2333 4.62115 26.9122 4.30008 26.5166 4.30008H23.65C23.2544 4.30008 22.9333 4.62115 22.9333 5.01672V9.31672C22.9333 9.71228 23.2544 10.0334 23.65 10.0334ZM24.3666 5.73336H25.8V8.6H24.3666V5.73336Z" fill="#232323"/>
<path d="M22.9333 26.5166C22.9333 26.9122 23.2544 27.2333 23.65 27.2333H26.5166C26.9122 27.2333 27.2333 26.9122 27.2333 26.5166V22.2166C27.2333 21.8211 26.9122 21.5 26.5166 21.5H23.65C23.2544 21.5 22.9333 21.8211 22.9333 22.2166V26.5166ZM24.3666 22.9334H25.8V25.8H24.3666V22.9334Z" fill="#232323"/>
<path d="M16.4832 10.0334H19.3499C19.7454 10.0334 20.0665 9.71228 20.0665 9.31672V5.01672C20.0665 4.62115 19.7454 4.30008 19.3499 4.30008H16.4832C16.0877 4.30008 15.7666 4.62115 15.7666 5.01672V9.31672C15.7665 9.71228 16.0876 10.0334 16.4832 10.0334ZM17.1999 5.73336H18.6332V8.6H17.1999V5.73336Z" fill="#232323"/>
<path d="M20.9911 34.6079C20.8621 34.744 20.7832 34.9304 20.7832 35.1167C20.7832 35.3031 20.8621 35.4894 20.9911 35.6256C21.1272 35.7546 21.3136 35.8334 21.4999 35.8334C21.6863 35.8334 21.8726 35.7546 22.0088 35.6256C22.1378 35.4894 22.2166 35.3031 22.2166 35.1167C22.2166 34.9304 22.1378 34.7441 22.0088 34.6079C21.7364 34.3426 21.2634 34.3426 20.9911 34.6079Z" fill="#232323"/>
<path d="M15.7666 26.5166C15.7666 26.9122 16.0877 27.2333 16.4832 27.2333H19.35C19.7455 27.2333 20.0666 26.9122 20.0666 26.5166V22.2166C20.0666 21.8211 19.7455 21.5 19.35 21.5H16.4833C16.0878 21.5 15.7667 21.8211 15.7667 22.2166V26.5166H15.7666ZM17.2 22.9334H18.6333V25.8H17.2V22.9334Z" fill="#232323"/>
<path d="M14.3333 30.8166C14.3333 31.2122 14.6543 31.5333 15.0499 31.5333H17.1999V37.9833C17.1999 38.3788 17.521 38.6999 17.9165 38.6999C18.3121 38.6999 18.6332 38.3788 18.6332 37.9833V31.5333H24.3665V37.9833C24.3665 38.3788 24.6876 38.6999 25.0832 38.6999C25.4787 38.6999 25.7998 38.3788 25.7998 37.9833V31.5333H27.9498C28.3454 31.5333 28.6664 31.2122 28.6664 30.8166C28.6664 30.4211 28.3454 30.1 27.9498 30.1H15.0499C14.6543 30.1 14.3333 30.4211 14.3333 30.8166Z" fill="#232323"/>
<path d="M34.4001 26.5166C34.4001 26.9122 34.7212 27.2333 35.1168 27.2333H37.9834C38.379 27.2333 38.7001 26.9122 38.7001 26.5166V22.2166C38.7001 21.8211 38.379 21.5 37.9834 21.5H35.1168C34.7212 21.5 34.4001 21.8211 34.4001 22.2166V26.5166ZM35.8335 22.9334H37.2669V25.8H35.8335V22.9334Z" fill="#232323"/>
<path d="M30.8167 0H12.1834C11.7879 0 11.4668 0.321072 11.4668 0.716639V37.9833C11.4668 38.3788 11.7879 38.6999 12.1834 38.6999C12.579 38.6999 12.9001 38.3788 12.9001 37.9833V1.43328H30.1001V37.9833C30.1001 38.3788 30.4211 38.6999 30.8167 38.6999C31.2123 38.6999 31.5334 38.3788 31.5334 37.9833V0.716639C31.5334 0.321072 31.2124 0 30.8167 0Z" fill="#232323"/>
</svg>
