<svg width="46" height="46" viewBox="0 0 46 46" fill="none" xmlns="http://www.w3.org/2000/svg">
<path d="M26.1783 12.7531H19.8218C19.4496 12.7531 19.1479 13.0548 19.1479 13.427V32.9807C19.1479 33.3529 19.4496 33.6546 19.8218 33.6546H26.1783C26.5505 33.6546 26.8521 33.3529 26.8521 32.9807V13.427C26.8521 13.0548 26.5505 12.7531 26.1783 12.7531ZM20.4955 14.1008H25.5044V16.6639H20.4955V14.1008ZM20.4955 18.0115H25.5044V20.5747H20.4955V18.0115ZM20.4955 25.833H25.5044V28.3962H20.4955V25.833ZM25.5045 32.3069H20.4956V29.7439H25.5045V32.3069ZM25.5045 24.4854H20.4956V21.9223H25.5045V24.4854Z" fill="#232323"/>
<path d="M15.7494 12.7531H9.39282C9.02069 12.7531 8.71899 13.0548 8.71899 13.427V40.8023C8.71899 41.1744 9.02069 41.4761 9.39282 41.4761H15.7494C16.1217 41.4761 16.4233 41.1744 16.4233 40.8023V13.427C16.4233 13.0548 16.1216 12.7531 15.7494 12.7531ZM15.0756 40.1284H10.0667V37.5653H15.0756V40.1284ZM15.0756 36.2176H10.0667V33.6546H15.0756V36.2176ZM15.0756 32.3069H10.0667V29.7439H15.0756V32.3069ZM15.0756 28.3962H10.0667V25.833H15.0756V28.3962ZM15.0756 24.4854H10.0667V21.9223H15.0756V24.4854ZM15.0756 20.5747H10.0667V18.0115H15.0756V20.5747ZM15.0756 16.6639H10.0667V14.1008H15.0756V16.6639Z" fill="#232323"/>
<path d="M36.6071 12.7531H30.2505C29.8783 12.7531 29.5767 13.0548 29.5767 13.427V40.8023C29.5767 41.1744 29.8783 41.4761 30.2505 41.4761H36.6071C36.9793 41.4761 37.2809 41.1744 37.2809 40.8023V13.427C37.2809 13.0548 36.9794 12.7531 36.6071 12.7531ZM30.9244 21.9223H35.9334V24.4854H30.9244V21.9223ZM35.9333 40.1284H30.9243V37.5653H35.9333V40.1284ZM35.9334 36.2176H30.9244V33.6546H35.9334V36.2176ZM35.9334 32.3069H30.9244V29.7439H35.9334V32.3069ZM35.9334 28.3962H30.9244V25.833H35.9334V28.3962ZM35.9334 20.5747H30.9244V18.0115H35.9334V20.5747ZM35.9334 16.6639H30.9244V14.1008H35.9334V16.6639Z" fill="#232323"/>
<path d="M41.5514 5.8924H40.372V3.09988C40.372 3.09988 41.5487 3.09988 41.5514 3.09988C42.4195 3.09988 42.4215 1.75222 41.5514 1.75222H23.6739V0.673828C23.6739 0.301695 23.3722 0 23.0001 0H6.30178C5.92965 0 5.62795 0.301695 5.62795 0.673828V5.8924H4.44849C4.07635 5.8924 3.77466 6.1941 3.77466 6.56623V9.89898C3.77466 10.2711 4.07635 10.5728 4.44849 10.5728H5.62786V45.3262C5.62786 45.6983 5.92956 46 6.30169 46H39.6982C40.0705 46 40.3721 45.6983 40.3721 45.3262V10.5729H41.5515C41.9237 10.5729 42.2254 10.2712 42.2254 9.89907V6.56623C42.2253 6.1941 41.9237 5.8924 41.5514 5.8924ZM37.0325 3.09988H39.0245V5.8924H37.0325V3.09988ZM33.6928 3.09988H35.6848V5.8924H33.6928V3.09988ZM30.3531 3.09988H32.3451V5.8924H30.3531V3.09988ZM27.0135 3.09988H29.0055V5.8924H27.0135V3.09988ZM23.6739 3.09988H25.6658V5.8924H23.6739V3.09988ZM6.97561 1.34766H22.3262V5.8924H16.4234V3.07796C16.4234 2.70582 16.1218 2.40413 15.7496 2.40413H9.39295C9.02081 2.40413 8.71912 2.70582 8.71912 3.07796V5.89249H6.97561V1.34766ZM15.0757 3.75179V5.8924H10.0667V3.75179H15.0757ZM26.7817 44.6523H19.2184V37.06H26.7818V44.6523H26.7817ZM40.8778 9.22525C40.8778 9.22525 17.0465 9.22525 17.0197 9.22525C16.1525 9.22525 16.1496 10.5729 17.0197 10.5729H39.0245V44.6523H28.1293V36.3862C28.1293 36.014 27.8277 35.7123 27.4555 35.7123H18.5445C18.1723 35.7123 17.8707 36.014 17.8707 36.3862V44.6523H6.97561V10.5729C6.97561 10.5729 14.3144 10.5729 14.3244 10.5729C15.1905 10.5729 15.1948 9.22525 14.3244 9.22525H5.12231V7.24006H40.8778V9.22525Z" fill="#232323"/>
</svg>
