<svg width="46" height="46" viewBox="0 0 46 46" fill="none" xmlns="http://www.w3.org/2000/svg">
<path d="M5.75 20.8438H11.5C11.8967 20.8438 12.2188 20.5225 12.2188 20.125V15.8125C12.2188 15.415 11.8967 15.0938 11.5 15.0938H5.75C5.35325 15.0938 5.03125 15.415 5.03125 15.8125V20.125C5.03125 20.5225 5.35325 20.8438 5.75 20.8438ZM10.7812 19.4062H9.34375V16.5312H10.7812V19.4062ZM6.46875 16.5312H7.90625V19.4062H6.46875V16.5312Z" fill="#232323"/>
<path d="M14.375 20.8438H20.125C20.5217 20.8438 20.8438 20.5225 20.8438 20.125V15.8125C20.8438 15.415 20.5217 15.0938 20.125 15.0938H14.375C13.9782 15.0938 13.6562 15.415 13.6562 15.8125V20.125C13.6562 20.5225 13.9782 20.8438 14.375 20.8438ZM19.4062 19.4062H17.9688V16.5312H19.4062V19.4062ZM15.0938 16.5312H16.5312V19.4062H15.0938V16.5312Z" fill="#232323"/>
<path d="M44.7688 23.0302L23.7188 16.7153V15.8125H28.75C30.3356 15.8125 31.625 14.5231 31.625 12.9375C31.625 11.5999 30.7064 10.4722 29.4673 10.1531C29.4688 10.1229 29.4688 10.0927 29.4688 10.0625C29.4688 8.0809 27.8566 6.46875 25.875 6.46875C24.4238 6.46875 23.1373 7.34203 22.5802 8.64872C22.1979 8.69328 21.8306 8.80469 21.4834 8.96712L13.4457 0.92934C13.1646 0.648309 12.7104 0.648309 12.4293 0.92934L2.36684 10.9918C2.23172 11.1262 2.15625 11.3088 2.15625 11.5V40.9688H1.4375C1.04075 40.9688 0.71875 41.29 0.71875 41.6875V44.5625C0.71875 44.96 1.04075 45.2813 1.4375 45.2813H44.5625C44.9593 45.2813 45.2812 44.96 45.2812 44.5625V41.6875C45.2812 41.29 44.9593 40.9688 44.5625 40.9688H43.8438V27.8473L44.3562 28.0011C44.4238 28.0212 44.4935 28.0313 44.5625 28.0313C44.7149 28.0313 44.8658 27.9831 44.9916 27.8897C45.1742 27.7531 45.2812 27.5396 45.2812 27.3125V23.7188C45.2812 23.4018 45.0728 23.1215 44.7688 23.0302ZM22.2812 12.2187V22.2813H3.59375V12.2187H22.2812ZM22.2812 26.5938H20.8438V23.7188H22.2812V26.5938ZM7.90625 23.7188V26.5938H6.46875V23.7188H7.90625ZM9.34375 23.7188H10.7812V26.5938H9.34375V23.7188ZM12.2188 23.7188H13.6562V26.5938H12.2188V23.7188ZM15.0938 23.7188H16.5312V26.5938H15.0938V23.7188ZM17.9688 23.7188H19.4062V26.5938H17.9688V23.7188ZM5.03125 23.7188V26.5938H3.59375V23.7188H5.03125ZM22.2812 28.0313V29.4688H3.59375V28.0313H22.2812ZM22.9533 10.0603C22.977 10.0639 23.0446 10.0711 23.0683 10.0718C23.4162 10.1049 23.7108 9.86053 23.7949 9.53134C24.0393 8.57469 24.8946 7.90625 25.875 7.90625C27.0638 7.90625 28.0312 8.87369 28.0312 10.0625C28.0312 10.2249 28.0054 10.3982 27.95 10.6087C27.8918 10.8294 27.9414 11.0644 28.0844 11.242C28.2268 11.4195 28.4496 11.5287 28.6731 11.5101C28.7148 11.5086 28.7543 11.5036 28.75 11.5C29.5428 11.5 30.1875 12.1447 30.1875 12.9375C30.1875 13.7303 29.5428 14.375 28.75 14.375H23.7188V11.5C23.7188 11.3088 23.6433 11.1262 23.5082 10.9918L22.6126 10.0963C22.7269 10.0747 22.8412 10.0611 22.9533 10.0603ZM12.9375 2.45381L21.2649 10.7812H4.61006L12.9375 2.45381ZM3.59375 30.9063H22.2812V40.9688H17.9688V34.5C17.9688 34.1025 17.6467 33.7813 17.25 33.7813H8.625C8.22825 33.7813 7.90625 34.1025 7.90625 34.5V40.9688H3.59375V30.9063ZM9.34375 40.9688V35.2188H12.2188V40.9688H9.34375ZM13.6562 35.2188H16.5312V40.9688H13.6562V35.2188ZM43.8438 43.8438H2.15625V42.4063H43.8438V43.8438ZM39.5312 32.3438H26.5938V30.9063H39.5312V32.3438ZM26.5938 33.7813H39.5312V35.2188H26.5938V33.7813ZM26.5938 36.6563H39.5312V40.9688H26.5938V36.6563ZM42.4062 40.9688H40.9688V30.1875C40.9688 29.79 40.6468 29.4688 40.25 29.4688H25.875C25.4783 29.4688 25.1562 29.79 25.1562 30.1875V40.9688H23.7188V21.8098L42.4062 27.416V40.9688ZM43.8438 26.3465L23.7188 20.309V18.216L43.8438 24.2535V26.3465Z" fill="#232323"/>
<path d="M35.9375 10.0625H41.6875C43.6691 10.0625 45.2812 8.45034 45.2812 6.46875C45.2812 4.62875 43.8919 3.10787 42.1073 2.89944C41.5502 1.59203 40.2637 0.71875 38.8125 0.71875C36.8309 0.71875 35.2188 2.33091 35.2188 4.3125C35.2188 4.34269 35.2187 4.37287 35.2202 4.40306C33.9811 4.72219 33.0625 5.84991 33.0625 7.1875C33.0625 8.77306 34.3519 10.0625 35.9375 10.0625ZM35.8929 5.74784C35.9174 5.75144 35.9892 5.75934 36.0137 5.76006C36.2422 5.77803 36.46 5.67022 36.6023 5.49197C36.7454 5.31444 36.795 5.07941 36.7367 4.85875C36.6821 4.64816 36.6562 4.47494 36.6562 4.3125C36.6562 3.12369 37.6237 2.15625 38.8125 2.15625C39.7929 2.15625 40.6482 2.82469 40.8926 3.78134C40.9767 4.11053 41.2821 4.33909 41.6192 4.32184C41.658 4.32041 41.6961 4.31609 41.6875 4.3125C42.8763 4.3125 43.8438 5.27994 43.8438 6.46875C43.8438 7.65756 42.8763 8.625 41.6875 8.625H35.9375C35.1447 8.625 34.5 7.98028 34.5 7.1875C34.5 6.39472 35.1447 5.75 35.8929 5.74784Z" fill="#232323"/>
</svg>
