<svg width="17" height="27" viewBox="0 0 17 27" fill="none" xmlns="http://www.w3.org/2000/svg">
<path d="M8.28282 0.271133C3.78561 0.271133 0.141602 3.90049 0.141602 8.39607C0.141602 16.1693 8.28282 26.3068 8.28282 26.3068C8.28282 26.3068 16.424 16.1677 16.424 8.39607C16.424 3.90212 12.78 0.271133 8.28282 0.271133ZM8.28282 12.8917C7.11686 12.8917 5.99866 12.4285 5.1742 11.604C4.34974 10.7796 3.88656 9.66136 3.88656 8.49539C3.88656 7.32943 4.34974 6.21123 5.1742 5.38677C5.99866 4.56231 7.11686 4.09914 8.28282 4.09914C9.44878 4.09914 10.567 4.56231 11.3914 5.38677C12.2159 6.21123 12.6791 7.32943 12.6791 8.49539C12.6791 9.66136 12.2159 10.7796 11.3914 11.604C10.567 12.4285 9.44878 12.8917 8.28282 12.8917Z" fill="#EDCA4A"/>
</svg>
