<svg width="20" height="15" viewBox="0 0 20 15" fill="none" xmlns="http://www.w3.org/2000/svg">
<g clip-path="url(#clip0)">
<path d="M9.64823 7.47329L0.00878906 2.59233V1.44276C0.00878906 1.10354 0.128027 0.817716 0.366503 0.585289C0.604978 0.352862 0.887384 0.236649 1.21372 0.236649H18.0827C18.4091 0.236649 18.6915 0.352862 18.93 0.585289C19.1684 0.817716 19.2877 1.10354 19.2877 1.44276V2.59233L9.64823 7.47329ZM9.04576 8.6794H10.2507L19.2877 3.98689V13.5038C19.2877 13.8305 19.1684 14.1132 18.93 14.3519C18.6915 14.5906 18.4091 14.7099 18.0827 14.7099H1.21372C0.887384 14.7099 0.604978 14.5906 0.366503 14.3519C0.128027 14.1132 0.00878906 13.8305 0.00878906 13.5038V3.98689L9.04576 8.6794Z" fill="#EDCA4A"/>
</g>
<defs>
<clipPath id="clip0">
<rect width="19.2977" height="14.4733" fill="white" transform="translate(0 0.236649)"/>
</clipPath>
</defs>
</svg>
