<svg width="28" height="28" viewBox="0 0 28 28" fill="none" xmlns="http://www.w3.org/2000/svg">
<g clip-path="url(#clip0)">
<path d="M22.684 3.10254V11.551H20.9566V10.6063C20.2908 11.308 19.625 11.6589 18.9592 11.6589C18.1494 11.6589 17.7445 11.1551 17.7445 10.1474V3.10254H19.472V9.58057C19.472 9.95845 19.625 10.1474 19.9309 10.1474C20.2368 10.1474 20.5787 9.93146 20.9566 9.49959V3.10254H22.684ZM16.287 5.07294V9.44561C16.287 10.2014 16.0621 10.7772 15.6122 11.1731C15.1623 11.569 14.5505 11.7669 13.7767 11.7669C13.039 11.7669 12.4407 11.5555 11.9818 11.1326C11.5229 10.7097 11.2935 10.1384 11.2935 9.41862V5.04595C11.2935 4.34416 11.5409 3.80882 12.0358 3.43993C12.5306 3.07104 13.1379 2.8866 13.8577 2.8866C14.5415 2.8866 15.1173 3.08454 15.5852 3.48042C16.0531 3.8763 16.287 4.40714 16.287 5.07294ZM14.5325 9.58057V4.96497C14.5325 4.78502 14.4515 4.63657 14.2896 4.51961C14.1276 4.40264 13.9567 4.34416 13.7767 4.34416C13.5968 4.34416 13.4348 4.40264 13.2909 4.51961C13.1469 4.63657 13.075 4.78502 13.075 4.96497V9.58057C13.075 10.0484 13.3089 10.2824 13.7767 10.2824C14.2806 10.2824 14.5325 10.0484 14.5325 9.58057ZM9.40407 0.106445H11.3745L9.88993 4.56009C9.81795 4.77603 9.72797 5.02345 9.62001 5.30237C9.51204 5.58128 9.41757 5.83321 9.33659 6.05814C9.25562 6.28307 9.18814 6.53049 9.13416 6.80041V11.551H7.19075V7.01635C7.15476 6.80041 6.89384 6.03565 6.40798 4.72204L4.86945 0.106445H6.83985L8.08147 4.66806H8.21643L9.40407 0.106445ZM25.8961 20.0534C25.8961 20.9351 25.8421 22.2397 25.7341 23.9672C25.6621 24.8669 25.3157 25.5822 24.6949 26.113C24.0741 26.6439 23.3139 26.9273 22.4141 26.9633C20.6327 27.0533 17.9605 27.0982 14.3976 27.0982C10.8166 27.0982 8.14446 27.0533 6.38099 26.9633C5.48126 26.9273 4.72099 26.6439 4.10018 26.113C3.47937 25.5822 3.13298 24.8669 3.061 23.9672C2.95303 22.2397 2.89905 20.9351 2.89905 20.0534C2.89905 19.1717 2.95303 17.8671 3.061 16.1396C3.13298 15.2399 3.47937 14.5246 4.10018 13.9937C4.72099 13.4629 5.48126 13.1795 6.38099 13.1435C8.14446 13.0535 10.8166 13.0085 14.3976 13.0085C17.9785 13.0085 20.6507 13.0535 22.4141 13.1435C23.3139 13.1795 24.0741 13.4629 24.6949 13.9937C25.3157 14.5246 25.6621 15.2399 25.7341 16.1396C25.8421 17.8671 25.8961 19.1717 25.8961 20.0534ZM23.9796 22.5096V21.9968H22.5491C22.5491 22.0328 22.5536 22.1498 22.5626 22.3477C22.5716 22.5456 22.5716 22.6851 22.5626 22.7661C22.5536 22.847 22.5311 22.9505 22.4951 23.0765C22.4591 23.2024 22.3961 23.2924 22.3062 23.3464C22.2162 23.4004 22.0902 23.4274 21.9283 23.4274C21.7483 23.4274 21.6089 23.3734 21.5099 23.2654C21.4109 23.1574 21.3569 23.0495 21.3479 22.9415C21.339 22.8335 21.3345 22.6806 21.3345 22.4827V21.187H23.9796V19.4596C23.9796 18.8298 23.8087 18.3349 23.4668 17.975C23.1249 17.6151 22.6391 17.4352 22.0092 17.4352C21.3974 17.4352 20.8891 17.6196 20.4842 17.9885C20.0793 18.3574 19.8769 18.8478 19.8769 19.4596V22.5096C19.8769 23.1574 20.0523 23.6748 20.4032 24.0617C20.7541 24.4486 21.2535 24.642 21.9013 24.642C23.2869 24.642 23.9796 23.9312 23.9796 22.5096ZM18.8242 23.0225V19.2436C18.8242 18.11 18.3744 17.5431 17.4746 17.5431C17.0248 17.5431 16.6109 17.7501 16.233 18.164V15.1949H14.8294V24.4531H16.233V23.9132C16.6289 24.3271 17.0697 24.534 17.5556 24.534C18.4013 24.534 18.8242 24.0302 18.8242 23.0225ZM12.0763 24.4531H13.4528V17.6241H12.0763V22.8066C11.7704 23.1484 11.4914 23.3194 11.2395 23.3194C11.0056 23.3194 10.8886 23.1664 10.8886 22.8605V17.6241H9.48505V23.3734C9.48505 24.1651 9.80895 24.561 10.4568 24.561C10.9966 24.561 11.5364 24.2731 12.0763 23.6973V24.4531ZM7.86554 16.5445H9.51204V15.1949H4.68051V16.5445H6.30002V24.4531H7.86554V16.5445ZM22.5491 19.3786V20.1344H21.3345V19.3786C21.3345 18.8927 21.5414 18.6498 21.9553 18.6498C22.3511 18.6498 22.5491 18.8927 22.5491 19.3786ZM17.3936 19.2976V22.8875C17.3936 23.2654 17.2317 23.4544 16.9078 23.4544C16.6559 23.4544 16.4309 23.3554 16.233 23.1574V18.8927C16.4129 18.7128 16.6109 18.6228 16.8268 18.6228C17.2047 18.6228 17.3936 18.8478 17.3936 19.2976Z" fill="black"/>
</g>
<defs>
<clipPath id="clip0">
<rect width="26.9918" height="26.9918" fill="white" transform="translate(0.901611 0.106445)"/>
</clipPath>
</defs>
</svg>
