<svg width="36" height="43" viewBox="0 0 36 43" fill="none" xmlns="http://www.w3.org/2000/svg">
<path d="M30.5471 5.41371V18.3572H27.9005V16.9098C26.8804 17.985 25.8604 18.5226 24.8404 18.5226C23.5998 18.5226 22.9795 17.7507 22.9795 16.2068V5.41371H25.6261V15.3384C25.6261 15.9174 25.8604 16.2068 26.3291 16.2068C26.7977 16.2068 27.3215 15.876 27.9005 15.2144V5.41371H30.5471ZM20.7464 8.43247V15.1316C20.7464 16.2895 20.4018 17.1717 19.7126 17.7782C19.0234 18.3847 18.086 18.688 16.9006 18.688C15.7703 18.688 14.8536 18.3641 14.1506 17.7162C13.4476 17.0683 13.0961 16.193 13.0961 15.0903V8.39112C13.0961 7.31594 13.4752 6.49578 14.2333 5.93062C14.9915 5.36546 15.9219 5.08289 17.0246 5.08289C18.0723 5.08289 18.9545 5.38614 19.6712 5.99265C20.388 6.59916 20.7464 7.41243 20.7464 8.43247ZM18.0585 15.3384V8.26706C18.0585 7.99138 17.9344 7.76393 17.6863 7.58474C17.4382 7.40554 17.1763 7.31594 16.9006 7.31594C16.6249 7.31594 16.3768 7.40554 16.1562 7.58474C15.9357 7.76393 15.8254 7.99138 15.8254 8.26706V15.3384C15.8254 16.0552 16.1838 16.4136 16.9006 16.4136C17.6725 16.4136 18.0585 16.0552 18.0585 15.3384ZM10.2014 0.823532H13.2202L10.9458 7.64677C10.8355 7.97759 10.6976 8.35666 10.5322 8.78397C10.3668 9.21129 10.2221 9.59725 10.098 9.94186C9.97397 10.2865 9.87059 10.6655 9.78788 11.0791V18.3572H6.81047V11.4099C6.75533 11.0791 6.35559 9.9074 5.61123 7.89489L3.25412 0.823532H6.27288L8.17512 7.81218H8.38188L10.2014 0.823532ZM35.4681 31.3834C35.4681 32.7342 35.3854 34.7329 35.2199 37.3795C35.1097 38.758 34.579 39.8538 33.6279 40.6671C32.6767 41.4804 31.512 41.9146 30.1335 41.9697C27.4042 42.1076 23.3103 42.1765 17.8517 42.1765C12.3655 42.1765 8.27161 42.1076 5.56988 41.9697C4.19145 41.9146 3.02668 41.4804 2.07556 40.6671C1.12444 39.8538 0.593744 38.758 0.483469 37.3795C0.318057 34.7329 0.235352 32.7342 0.235352 31.3834C0.235352 30.0325 0.318057 28.0338 0.483469 25.3872C0.593744 24.0087 1.12444 22.9129 2.07556 22.0996C3.02668 21.2863 4.19145 20.8521 5.56988 20.797C8.27161 20.6592 12.3655 20.5902 17.8517 20.5902C23.3379 20.5902 27.4318 20.6592 30.1335 20.797C31.512 20.8521 32.6767 21.2863 33.6279 22.0996C34.579 22.9129 35.1097 24.0087 35.2199 25.3872C35.3854 28.0338 35.4681 30.0325 35.4681 31.3834ZM32.532 35.1465V34.3608H30.3403C30.3403 34.4159 30.3472 34.5951 30.361 34.8984C30.3748 35.2016 30.3748 35.4153 30.361 35.5393C30.3472 35.6634 30.3127 35.8219 30.2576 36.0149C30.2024 36.2079 30.106 36.3457 29.9681 36.4284C29.8303 36.5111 29.6373 36.5525 29.3892 36.5525C29.1135 36.5525 28.8998 36.4698 28.7482 36.3044C28.5966 36.1389 28.5139 35.9735 28.5001 35.8081C28.4863 35.6427 28.4794 35.4084 28.4794 35.1051V33.1202H32.532V30.4736C32.532 29.5087 32.2701 28.7506 31.7463 28.1992C31.2225 27.6478 30.4781 27.3721 29.5132 27.3721C28.5759 27.3721 27.7971 27.6547 27.1768 28.2199C26.5565 28.785 26.2464 29.5363 26.2464 30.4736V35.1465C26.2464 36.1389 26.5151 36.9315 27.0527 37.5243C27.5903 38.117 28.3554 38.4134 29.3478 38.4134C31.4706 38.4134 32.532 37.3244 32.532 35.1465ZM24.6336 35.9322V30.1428C24.6336 28.4059 23.9444 27.5375 22.5659 27.5375C21.8767 27.5375 21.2426 27.8546 20.6637 28.4887V23.9398H18.5134V38.1239H20.6637V37.2968C21.2702 37.9309 21.9456 38.2479 22.69 38.2479C23.9857 38.2479 24.6336 37.476 24.6336 35.9322ZM14.2954 38.1239H16.4044V27.6616H14.2954V35.6014C13.8267 36.1252 13.3994 36.3871 13.0134 36.3871C12.655 36.3871 12.4758 36.1527 12.4758 35.6841V27.6616H10.3255V36.4698C10.3255 37.6828 10.8217 38.2893 11.8142 38.2893C12.6412 38.2893 13.4683 37.8482 14.2954 36.966V38.1239ZM7.84429 26.0075H10.3668V23.9398H2.96465V26.0075H5.44582V38.1239H7.84429V26.0075ZM30.3403 30.3495V31.5074H28.4794V30.3495C28.4794 29.6052 28.7964 29.233 29.4305 29.233C30.037 29.233 30.3403 29.6052 30.3403 30.3495ZM22.4419 30.2255V35.7254C22.4419 36.3044 22.1938 36.5938 21.6975 36.5938C21.3116 36.5938 20.967 36.4422 20.6637 36.1389V29.6052C20.9394 29.3295 21.2426 29.1917 21.5735 29.1917C22.1524 29.1917 22.4419 29.5363 22.4419 30.2255Z" fill="black"/>
</svg>
